<svg width="250" height="125" viewBox="0 0 250 125" fill="none" xmlns="http://www.w3.org/2000/svg">
<path d="M65.938 124.979C64.4106 124.979 62.991 124.724 61.679 124.215C60.3866 123.686 59.2607 122.952 58.3012 122.012C57.3417 121.072 56.5976 119.976 56.0689 118.722C55.5402 117.45 55.2759 116.059 55.2759 114.552C55.2759 113.044 55.5402 111.663 56.0689 110.41C56.5976 109.137 57.3417 108.031 58.3012 107.091C59.2803 106.151 60.416 105.427 61.7084 104.918C63.0008 104.389 64.4106 104.124 65.938 104.124C67.387 104.124 68.7381 104.359 69.9914 104.829C71.2642 105.299 72.3509 106.014 73.2517 106.974L72.3118 107.943C71.4306 107.081 70.4515 106.464 69.3745 106.092C68.3171 105.701 67.1912 105.505 65.9967 105.505C64.6848 105.505 63.4609 105.73 62.3252 106.181C61.2091 106.631 60.23 107.267 59.388 108.09C58.5656 108.912 57.9194 109.872 57.4494 110.968C56.999 112.065 56.7739 113.259 56.7739 114.552C56.7739 115.844 56.999 117.038 57.4494 118.135C57.9194 119.232 58.5656 120.191 59.388 121.014C60.23 121.836 61.2091 122.472 62.3252 122.923C63.4609 123.373 64.6848 123.598 65.9967 123.598C67.1912 123.598 68.3171 123.412 69.3745 123.04C70.4515 122.649 71.4306 122.012 72.3118 121.131L73.2517 122.1C72.3509 123.06 71.2642 123.784 69.9914 124.274C68.7381 124.744 67.387 124.979 65.938 124.979Z" fill="#205375"/>
<path d="M82.4865 124.949C81.0179 124.949 79.7059 124.617 78.5506 123.951C77.4149 123.285 76.5043 122.365 75.819 121.19C75.1532 120.015 74.8203 118.674 74.8203 117.166C74.8203 115.638 75.1532 114.297 75.819 113.142C76.5043 111.967 77.4149 111.047 78.5506 110.381C79.7059 109.715 81.0179 109.382 82.4865 109.382C83.9551 109.382 85.2671 109.715 86.4224 110.381C87.5777 111.047 88.4882 111.967 89.154 113.142C89.8197 114.297 90.1526 115.638 90.1526 117.166C90.1526 118.674 89.8197 120.015 89.154 121.19C88.4882 122.365 87.5777 123.285 86.4224 123.951C85.2671 124.617 83.9551 124.949 82.4865 124.949ZM82.4865 123.628C83.6614 123.628 84.7188 123.363 85.6587 122.835C86.5986 122.286 87.3329 121.523 87.8616 120.544C88.3903 119.564 88.6546 118.439 88.6546 117.166C88.6546 115.873 88.3903 114.747 87.8616 113.788C87.3329 112.809 86.5986 112.055 85.6587 111.526C84.7188 110.978 83.6614 110.704 82.4865 110.704C81.3116 110.704 80.2542 110.978 79.3143 111.526C78.394 112.055 77.6596 112.809 77.1114 113.788C76.5827 114.747 76.3183 115.873 76.3183 117.166C76.3183 118.439 76.5827 119.564 77.1114 120.544C77.6596 121.523 78.394 122.286 79.3143 122.835C80.2542 123.363 81.3116 123.628 82.4865 123.628Z" fill="#205375"/>
<path d="M101.611 109.382C102.864 109.382 103.951 109.627 104.872 110.116C105.811 110.586 106.536 111.311 107.045 112.29C107.574 113.249 107.838 114.444 107.838 115.873V124.832H106.37V115.991C106.37 114.268 105.929 112.956 105.048 112.055C104.186 111.154 102.972 110.704 101.406 110.704C100.211 110.704 99.1733 110.949 98.2922 111.438C97.411 111.928 96.7354 112.613 96.2655 113.494C95.8151 114.375 95.5899 115.433 95.5899 116.666V124.832H94.1213V109.5H95.5312V113.759L95.3256 113.289C95.7955 112.075 96.569 111.125 97.646 110.44C98.723 109.735 100.045 109.382 101.611 109.382Z" fill="#205375"/>
<path d="M117.174 124.949C115.901 124.949 114.707 124.763 113.591 124.391C112.494 124.019 111.642 123.549 111.035 122.981L111.711 121.807C112.298 122.316 113.082 122.756 114.061 123.128C115.04 123.481 116.097 123.657 117.233 123.657C118.839 123.657 119.994 123.393 120.699 122.864C121.404 122.335 121.756 121.64 121.756 120.779C121.756 120.152 121.57 119.662 121.198 119.31C120.846 118.938 120.366 118.654 119.759 118.458C119.152 118.262 118.486 118.106 117.762 117.988C117.037 117.851 116.313 117.704 115.588 117.548C114.864 117.391 114.198 117.166 113.591 116.872C112.984 116.578 112.494 116.177 112.122 115.668C111.77 115.139 111.593 114.444 111.593 113.582C111.593 112.799 111.809 112.094 112.24 111.468C112.67 110.841 113.317 110.342 114.178 109.97C115.04 109.578 116.117 109.382 117.409 109.382C118.369 109.382 119.328 109.519 120.288 109.793C121.267 110.067 122.06 110.43 122.667 110.88L121.991 112.055C121.345 111.565 120.62 111.213 119.818 110.998C119.015 110.782 118.202 110.675 117.38 110.675C115.892 110.675 114.795 110.949 114.09 111.497C113.405 112.045 113.062 112.731 113.062 113.553C113.062 114.199 113.238 114.718 113.591 115.11C113.963 115.482 114.452 115.775 115.059 115.991C115.666 116.187 116.332 116.353 117.057 116.49C117.781 116.608 118.506 116.745 119.23 116.901C119.955 117.058 120.62 117.283 121.228 117.577C121.835 117.851 122.314 118.243 122.667 118.752C123.039 119.241 123.225 119.907 123.225 120.749C123.225 121.591 122.99 122.325 122.52 122.952C122.07 123.579 121.394 124.068 120.493 124.421C119.592 124.773 118.486 124.949 117.174 124.949Z" fill="#205375"/>
<path d="M131.201 124.949C129.849 124.949 128.812 124.577 128.087 123.833C127.382 123.089 127.03 122.071 127.03 120.779V106.151H128.498V120.632C128.498 121.611 128.743 122.365 129.233 122.893C129.722 123.422 130.427 123.686 131.347 123.686C132.307 123.686 133.1 123.402 133.727 122.835L134.343 123.863C133.952 124.235 133.472 124.509 132.904 124.685C132.356 124.861 131.788 124.949 131.201 124.949ZM124.21 110.763V109.5H133.374V110.763H124.21Z" fill="#205375"/>
<path d="M137.852 124.832V109.5H139.261V113.7L139.115 113.23C139.545 111.996 140.27 111.047 141.288 110.381C142.306 109.715 143.579 109.382 145.106 109.382V110.821C145.048 110.821 144.989 110.821 144.93 110.821C144.871 110.802 144.813 110.792 144.754 110.792C143.05 110.792 141.719 111.33 140.759 112.407C139.8 113.465 139.32 114.943 139.32 116.843V124.832H137.852Z" fill="#205375"/>
<path d="M155.051 124.949C153.739 124.949 152.603 124.714 151.643 124.244C150.684 123.755 149.94 123.03 149.411 122.071C148.902 121.092 148.647 119.888 148.647 118.458V109.5H150.116V118.341C150.116 120.064 150.557 121.376 151.438 122.277C152.319 123.177 153.562 123.628 155.168 123.628C156.323 123.628 157.322 123.383 158.164 122.893C159.006 122.404 159.652 121.718 160.103 120.837C160.553 119.937 160.778 118.879 160.778 117.665V109.5H162.247V124.832H160.837V120.573L161.042 121.072C160.592 122.267 159.838 123.216 158.781 123.921C157.743 124.607 156.5 124.949 155.051 124.949Z" fill="#205375"/>
<path d="M173.965 124.949C172.476 124.949 171.145 124.617 169.97 123.951C168.815 123.285 167.894 122.365 167.209 121.19C166.543 120.015 166.21 118.674 166.21 117.166C166.21 115.638 166.543 114.287 167.209 113.112C167.894 111.938 168.815 111.027 169.97 110.381C171.145 109.715 172.476 109.382 173.965 109.382C175.198 109.382 176.314 109.617 177.313 110.087C178.331 110.557 179.154 111.262 179.78 112.202L178.694 112.995C178.145 112.212 177.46 111.634 176.638 111.262C175.815 110.89 174.924 110.704 173.965 110.704C172.77 110.704 171.693 110.978 170.734 111.526C169.794 112.055 169.05 112.809 168.501 113.788C167.973 114.747 167.708 115.873 167.708 117.166C167.708 118.458 167.973 119.594 168.501 120.573C169.05 121.532 169.794 122.286 170.734 122.835C171.693 123.363 172.77 123.628 173.965 123.628C174.924 123.628 175.815 123.442 176.638 123.07C177.46 122.698 178.145 122.12 178.694 121.337L179.78 122.13C179.154 123.07 178.331 123.775 177.313 124.244C176.314 124.714 175.198 124.949 173.965 124.949Z" fill="#205375"/>
<path d="M188.226 124.949C186.875 124.949 185.837 124.577 185.113 123.833C184.408 123.089 184.055 122.071 184.055 120.779V106.151H185.524V120.632C185.524 121.611 185.769 122.365 186.258 122.893C186.748 123.422 187.453 123.686 188.373 123.686C189.333 123.686 190.126 123.402 190.752 122.835L191.369 123.863C190.977 124.235 190.498 124.509 189.93 124.685C189.382 124.861 188.814 124.949 188.226 124.949ZM181.236 110.763V109.5H190.4V110.763H181.236Z" fill="#205375"/>
<path d="M194.877 124.832V109.5H196.346V124.832H194.877ZM195.612 105.769C195.279 105.769 194.995 105.652 194.76 105.417C194.525 105.182 194.407 104.908 194.407 104.594C194.407 104.262 194.525 103.978 194.76 103.743C194.995 103.508 195.279 103.39 195.612 103.39C195.964 103.39 196.248 103.508 196.463 103.743C196.698 103.958 196.816 104.232 196.816 104.565C196.816 104.898 196.698 105.182 196.463 105.417C196.248 105.652 195.964 105.769 195.612 105.769Z" fill="#205375"/>
<path d="M207.94 124.949C206.472 124.949 205.16 124.617 204.004 123.951C202.869 123.285 201.958 122.365 201.273 121.19C200.607 120.015 200.274 118.674 200.274 117.166C200.274 115.638 200.607 114.297 201.273 113.142C201.958 111.967 202.869 111.047 204.004 110.381C205.16 109.715 206.472 109.382 207.94 109.382C209.409 109.382 210.721 109.715 211.876 110.381C213.031 111.047 213.942 111.967 214.608 113.142C215.274 114.297 215.606 115.638 215.606 117.166C215.606 118.674 215.274 120.015 214.608 121.19C213.942 122.365 213.031 123.285 211.876 123.951C210.721 124.617 209.409 124.949 207.94 124.949ZM207.94 123.628C209.115 123.628 210.173 123.363 211.112 122.835C212.052 122.286 212.787 121.523 213.315 120.544C213.844 119.564 214.108 118.439 214.108 117.166C214.108 115.873 213.844 114.747 213.315 113.788C212.787 112.809 212.052 112.055 211.112 111.526C210.173 110.978 209.115 110.704 207.94 110.704C206.765 110.704 205.708 110.978 204.768 111.526C203.848 112.055 203.113 112.809 202.565 113.788C202.036 114.747 201.772 115.873 201.772 117.166C201.772 118.439 202.036 119.564 202.565 120.544C203.113 121.523 203.848 122.286 204.768 122.835C205.708 123.363 206.765 123.628 207.94 123.628Z" fill="#205375"/>
<path d="M227.065 109.382C228.318 109.382 229.405 109.627 230.325 110.116C231.265 110.586 231.99 111.311 232.499 112.29C233.028 113.249 233.292 114.444 233.292 115.873V124.832H231.823V115.991C231.823 114.268 231.383 112.956 230.502 112.055C229.64 111.154 228.426 110.704 226.859 110.704C225.665 110.704 224.627 110.949 223.746 111.438C222.865 111.928 222.189 112.613 221.719 113.494C221.269 114.375 221.044 115.433 221.044 116.666V124.832H219.575V109.5H220.985V113.759L220.779 113.289C221.249 112.075 222.023 111.125 223.1 110.44C224.177 109.735 225.498 109.382 227.065 109.382Z" fill="#205375"/>
<path d="M242.628 124.949C241.355 124.949 240.161 124.763 239.045 124.391C237.948 124.019 237.096 123.549 236.489 122.981L237.165 121.807C237.752 122.316 238.535 122.756 239.514 123.128C240.494 123.481 241.551 123.657 242.687 123.657C244.292 123.657 245.448 123.393 246.153 122.864C246.858 122.335 247.21 121.64 247.21 120.779C247.21 120.152 247.024 119.662 246.652 119.31C246.299 118.938 245.82 118.654 245.213 118.458C244.606 118.262 243.94 118.106 243.215 117.988C242.491 117.851 241.766 117.704 241.042 117.548C240.317 117.391 239.652 117.166 239.045 116.872C238.437 116.578 237.948 116.177 237.576 115.668C237.223 115.139 237.047 114.444 237.047 113.582C237.047 112.799 237.263 112.094 237.693 111.468C238.124 110.841 238.77 110.342 239.632 109.97C240.494 109.578 241.571 109.382 242.863 109.382C243.822 109.382 244.782 109.519 245.741 109.793C246.72 110.067 247.513 110.43 248.121 110.88L247.445 112.055C246.799 111.565 246.074 111.213 245.271 110.998C244.469 110.782 243.656 110.675 242.834 110.675C241.345 110.675 240.249 110.949 239.544 111.497C238.858 112.045 238.516 112.731 238.516 113.553C238.516 114.199 238.692 114.718 239.045 115.11C239.417 115.482 239.906 115.775 240.513 115.991C241.12 116.187 241.786 116.353 242.51 116.49C243.235 116.608 243.959 116.745 244.684 116.901C245.408 117.058 246.074 117.283 246.681 117.577C247.288 117.851 247.768 118.243 248.121 118.752C248.493 119.241 248.679 119.907 248.679 120.749C248.679 121.591 248.444 122.325 247.974 122.952C247.523 123.579 246.848 124.068 245.947 124.421C245.046 124.773 243.94 124.949 242.628 124.949Z" fill="#205375"/>
<path d="M96.7905 96.9283V66.0875H102.694L115.824 87.8523H112.696L125.605 66.0875H131.464L131.553 96.9283H124.856L124.812 76.3531H126.045L115.736 93.668H112.519L101.989 76.3531H103.487V96.9283H96.7905Z" fill="#205375"/>
<path d="M152.924 96.9283V92.3022L152.484 91.2888V83.0059C152.484 81.5373 152.028 80.3917 151.118 79.5693C150.237 78.7469 148.871 78.3357 147.02 78.3357C145.757 78.3357 144.509 78.5413 143.275 78.9525C142.071 79.3343 141.043 79.863 140.191 80.5386L137.724 75.7362C139.017 74.8257 140.573 74.1208 142.394 73.6214C144.215 73.1221 146.066 72.8725 147.946 72.8725C151.558 72.8725 154.364 73.7242 156.361 75.4278C158.358 77.1314 159.357 79.7896 159.357 83.4024V96.9283H152.924ZM145.699 97.2808C143.848 97.2808 142.262 96.9724 140.94 96.3555C139.619 95.7093 138.605 94.8429 137.9 93.7561C137.195 92.6693 136.843 91.4504 136.843 90.0993C136.843 88.6894 137.181 87.4558 137.856 86.3984C138.561 85.341 139.663 84.5185 141.161 83.9311C142.659 83.3143 144.612 83.0059 147.02 83.0059H153.321V87.0152H147.769C146.154 87.0152 145.038 87.2795 144.421 87.8082C143.834 88.3369 143.54 88.9978 143.54 89.7908C143.54 90.672 143.878 91.3769 144.553 91.9056C145.258 92.405 146.213 92.6546 147.417 92.6546C148.562 92.6546 149.591 92.3903 150.501 91.8616C151.412 91.3035 152.072 90.4958 152.484 89.4384L153.541 92.6106C153.042 94.1379 152.131 95.2981 150.809 96.0912C149.488 96.8842 147.784 97.2808 145.699 97.2808Z" fill="#205375"/>
<path d="M165.577 96.9283V73.2249H172.45V96.9283H165.577ZM169.014 69.9205C167.751 69.9205 166.723 69.5534 165.93 68.8191C165.137 68.0848 164.74 67.1742 164.74 66.0875C164.74 65.0007 165.137 64.0902 165.93 63.3559C166.723 62.6215 167.751 62.2544 169.014 62.2544C170.277 62.2544 171.305 62.6069 172.098 63.3118C172.891 63.9874 173.287 64.8685 173.287 65.9553C173.287 67.1008 172.891 68.0554 172.098 68.8191C171.334 69.5534 170.306 69.9205 169.014 69.9205Z" fill="#205375"/>
<path d="M184.513 92.0819L184.689 83.7108L195.748 73.2249H203.942L193.324 84.0192L189.756 86.9271L184.513 92.0819ZM178.829 96.9283V64.237H185.702V96.9283H178.829ZM196.497 96.9283L188.478 86.9711L192.796 81.6401L204.824 96.9283H196.497Z" fill="#205375"/>
<path d="M218.689 97.2808C215.986 97.2808 213.607 96.7521 211.551 95.6947C209.524 94.6373 207.953 93.198 206.837 91.3769C205.721 89.5265 205.163 87.4264 205.163 85.0766C205.163 82.6975 205.706 80.5973 206.793 78.7763C207.909 76.9258 209.422 75.4866 211.331 74.4586C213.24 73.4012 215.399 72.8725 217.807 72.8725C220.128 72.8725 222.213 73.3718 224.064 74.3704C225.943 75.3397 227.427 76.7496 228.514 78.6C229.6 80.4211 230.144 82.6093 230.144 85.1647C230.144 85.4291 230.129 85.7375 230.1 86.0899C230.07 86.413 230.041 86.7215 230.012 87.0152H210.758V83.0059H226.399L223.755 84.1954C223.755 82.9618 223.506 81.8897 223.006 80.9792C222.507 80.0686 221.817 79.3637 220.936 78.8644C220.054 78.3357 219.026 78.0713 217.851 78.0713C216.677 78.0713 215.634 78.3357 214.723 78.8644C213.842 79.3637 213.152 80.0833 212.653 81.0232C212.153 81.9338 211.904 83.0206 211.904 84.2836V85.341C211.904 86.6333 212.183 87.7789 212.741 88.7775C213.328 89.7468 214.136 90.4958 215.164 91.0245C216.221 91.5238 217.455 91.7735 218.865 91.7735C220.128 91.7735 221.229 91.5826 222.169 91.2007C223.138 90.8189 224.02 90.2461 224.813 89.4824L228.469 93.4477C227.383 94.6813 226.017 95.6359 224.372 96.3115C222.727 96.9577 220.833 97.2808 218.689 97.2808Z" fill="#205375"/>
<path d="M234.72 96.9283V73.2249H241.284V79.9218L240.359 77.9832C241.064 76.309 242.195 75.046 243.752 74.1942C245.308 73.313 247.203 72.8725 249.435 72.8725V79.2169C249.141 79.1875 248.877 79.1728 248.642 79.1728C248.407 79.1434 248.157 79.1287 247.893 79.1287C246.013 79.1287 244.486 79.6721 243.311 80.7589C242.165 81.8163 241.593 83.4758 241.593 85.7375V96.9283H234.72Z" fill="#205375"/>
<path d="M84.2914 1C120.854 1 151.922 24.7297 163.13 57.7444H118.444C110.489 46.7846 97.6239 39.6595 83.1041 39.6595C59.2711 39.6595 39.8996 58.8502 39.3717 82.7108H1.01978C2.17594 37.3788 39.0222 1 84.2914 1ZM203.93 57.7444C196.159 47.0369 183.7 39.9896 169.591 39.6708V1.00022C169.653 1.00007 169.716 1 169.778 1C206.34 1 237.409 24.7297 248.617 57.7444H203.93Z" fill="#205375" stroke="#205375" stroke-width="2"/>
</svg>
