<svg width="128" height="64" viewBox="0 0 128 64" fill="none" xmlns="http://www.w3.org/2000/svg">
<path d="M33.7605 63.9891C32.9785 63.9891 32.2516 63.8587 31.5799 63.5981C30.9182 63.3274 30.3417 62.9514 29.8505 62.4702C29.3592 61.989 28.9782 61.4275 28.7076 60.7859C28.4369 60.1342 28.3015 59.4224 28.3015 58.6504C28.3015 57.8784 28.4369 57.1716 28.7076 56.5299C28.9782 55.8783 29.3592 55.3118 29.8505 54.8306C30.3518 54.3494 30.9333 53.9784 31.595 53.7177C32.2567 53.447 32.9785 53.3117 33.7605 53.3117C34.5024 53.3117 35.1942 53.432 35.8358 53.6726C36.4875 53.9132 37.0439 54.2792 37.5051 54.7704L37.0239 55.2667C36.5727 54.8256 36.0714 54.5098 35.52 54.3193C34.9786 54.1188 34.4022 54.0185 33.7906 54.0185C33.1189 54.0185 32.4923 54.1338 31.9108 54.3644C31.3393 54.595 30.838 54.9208 30.4069 55.3419C29.9858 55.763 29.655 56.2542 29.4144 56.8157C29.1838 57.3771 29.0685 57.9887 29.0685 58.6504C29.0685 59.3121 29.1838 59.9237 29.4144 60.4851C29.655 61.0465 29.9858 61.5378 30.4069 61.9589C30.838 62.38 31.3393 62.7058 31.9108 62.9364C32.4923 63.167 33.1189 63.2823 33.7906 63.2823C34.4022 63.2823 34.9786 63.187 35.52 62.9965C36.0714 62.796 36.5727 62.4702 37.0239 62.019L37.5051 62.5153C37.0439 63.0066 36.4875 63.3775 35.8358 63.6282C35.1942 63.8688 34.5024 63.9891 33.7605 63.9891Z" fill="white"/>
<path d="M42.2333 63.974C41.4814 63.974 40.8097 63.8036 40.2182 63.4627C39.6367 63.1219 39.1705 62.6506 38.8196 62.0491C38.4787 61.4476 38.3083 60.7608 38.3083 59.9888C38.3083 59.2068 38.4787 58.5201 38.8196 57.9285C39.1705 57.327 39.6367 56.8558 40.2182 56.5149C40.8097 56.174 41.4814 56.0036 42.2333 56.0036C42.9853 56.0036 43.657 56.174 44.2485 56.5149C44.84 56.8558 45.3062 57.327 45.6471 57.9285C45.988 58.5201 46.1584 59.2068 46.1584 59.9888C46.1584 60.7608 45.988 61.4476 45.6471 62.0491C45.3062 62.6506 44.84 63.1219 44.2485 63.4627C43.657 63.8036 42.9853 63.974 42.2333 63.974ZM42.2333 63.2973C42.8349 63.2973 43.3763 63.162 43.8575 62.8913C44.3387 62.6105 44.7147 62.2195 44.9854 61.7183C45.2561 61.217 45.3914 60.6405 45.3914 59.9888C45.3914 59.3271 45.2561 58.7506 44.9854 58.2594C44.7147 57.7581 44.3387 57.3721 43.8575 57.1014C43.3763 56.8207 42.8349 56.6803 42.2333 56.6803C41.6318 56.6803 41.0904 56.8207 40.6092 57.1014C40.138 57.3721 39.762 57.7581 39.4813 58.2594C39.2106 58.7506 39.0752 59.3271 39.0752 59.9888C39.0752 60.6405 39.2106 61.217 39.4813 61.7183C39.762 62.2195 40.138 62.6105 40.6092 62.8913C41.0904 63.162 41.6318 63.2973 42.2333 63.2973Z" fill="white"/>
<path d="M52.0252 56.0036C52.6669 56.0036 53.2233 56.1289 53.6945 56.3796C54.1757 56.6202 54.5467 56.9911 54.8074 57.4924C55.078 57.9837 55.2134 58.5952 55.2134 59.3271V63.9139H54.4615V59.3873C54.4615 58.505 54.2359 57.8333 53.7847 57.3721C53.3436 56.9109 52.722 56.6803 51.9199 56.6803C51.3084 56.6803 50.777 56.8057 50.3259 57.0563C49.8747 57.3069 49.5288 57.6578 49.2882 58.109C49.0576 58.5602 48.9423 59.1015 48.9423 59.7332V63.9139H48.1904V56.0638H48.9122V58.2443L48.807 58.0037C49.0476 57.3821 49.4436 56.8959 49.995 56.545C50.5464 56.1841 51.2232 56.0036 52.0252 56.0036Z" fill="white"/>
<path d="M59.9934 63.974C59.3418 63.974 58.7302 63.8788 58.1587 63.6883C57.5973 63.4978 57.1612 63.2572 56.8504 62.9665L57.1963 62.3649C57.497 62.6256 57.8981 62.8512 58.3993 63.0417C58.9006 63.2221 59.442 63.3123 60.0235 63.3123C60.8456 63.3123 61.4371 63.177 61.7981 62.9063C62.159 62.6356 62.3394 62.2797 62.3394 61.8386C62.3394 61.5177 62.2442 61.2671 62.0537 61.0866C61.8733 60.8961 61.6276 60.7508 61.3168 60.6505C61.006 60.5503 60.6652 60.4701 60.2942 60.4099C59.9233 60.3397 59.5523 60.2645 59.1813 60.1843C58.8104 60.1041 58.4695 59.9888 58.1587 59.8384C57.8479 59.6881 57.5973 59.4825 57.4068 59.2219C57.2263 58.9512 57.1361 58.5952 57.1361 58.1541C57.1361 57.7531 57.2464 57.3922 57.4669 57.0713C57.6875 56.7505 58.0184 56.4949 58.4595 56.3044C58.9006 56.1039 59.452 56.0036 60.1137 56.0036C60.605 56.0036 61.0963 56.0738 61.5875 56.2141C62.0888 56.3545 62.4948 56.54 62.8056 56.7706L62.4598 57.3721C62.1289 57.1215 61.758 56.941 61.3469 56.8307C60.9358 56.7204 60.5198 56.6653 60.0987 56.6653C59.3367 56.6653 58.7753 56.8057 58.4144 57.0864C58.0635 57.3671 57.888 57.718 57.888 58.1391C57.888 58.4699 57.9783 58.7356 58.1587 58.9361C58.3492 59.1266 58.5999 59.277 58.9107 59.3873C59.2215 59.4875 59.5623 59.5728 59.9333 59.6429C60.3042 59.7031 60.6752 59.7733 61.0461 59.8535C61.4171 59.9337 61.758 60.049 62.0688 60.1994C62.3796 60.3397 62.6252 60.5402 62.8056 60.8009C62.9961 61.0515 63.0914 61.3924 63.0914 61.8235C63.0914 62.2546 62.9711 62.6306 62.7304 62.9514C62.4999 63.2722 62.154 63.5229 61.6928 63.7034C61.2316 63.8838 60.6652 63.974 59.9934 63.974Z" fill="white"/>
<path d="M67.1749 63.974C66.4832 63.974 65.9518 63.7836 65.5808 63.4026C65.2199 63.0216 65.0395 62.5003 65.0395 61.8386V54.3494H65.7914V61.7634C65.7914 62.2647 65.9167 62.6507 66.1674 62.9213C66.418 63.192 66.7789 63.3274 67.2501 63.3274C67.7414 63.3274 68.1474 63.182 68.4683 62.8913L68.7841 63.4176C68.5835 63.6081 68.3379 63.7485 68.0472 63.8387C67.7665 63.9289 67.4757 63.974 67.1749 63.974ZM63.5958 56.7104V56.0638H68.2878V56.7104H63.5958Z" fill="white"/>
<path d="M70.5802 63.9139V56.0638H71.3021V58.2143L71.2269 57.9737C71.4475 57.342 71.8184 56.8558 72.3397 56.5149C72.8611 56.174 73.5128 56.0036 74.2948 56.0036V56.7405C74.2647 56.7405 74.2346 56.7405 74.2045 56.7405C74.1744 56.7305 74.1444 56.7255 74.1143 56.7255C73.2421 56.7255 72.5603 57.0012 72.069 57.5526C71.5778 58.094 71.3322 58.8509 71.3322 59.8234V63.9139H70.5802Z" fill="white"/>
<path d="M79.3861 63.974C78.7144 63.974 78.1329 63.8537 77.6417 63.6131C77.1504 63.3625 76.7694 62.9915 76.4987 62.5003C76.2381 61.999 76.1077 61.3824 76.1077 60.6505V56.0638H76.8597V60.5904C76.8597 61.4726 77.0852 62.1444 77.5364 62.6055C77.9876 63.0667 78.6242 63.2973 79.4463 63.2973C80.0378 63.2973 80.5491 63.172 80.9802 62.9213C81.4113 62.6707 81.7422 62.3198 81.9728 61.8686C82.2034 61.4075 82.3187 60.8661 82.3187 60.2445V56.0638H83.0706V63.9139H82.3487V61.7333L82.454 61.989C82.2234 62.6005 81.8374 63.0868 81.296 63.4477C80.7647 63.7986 80.128 63.974 79.3861 63.974Z" fill="white"/>
<path d="M89.0702 63.974C88.3082 63.974 87.6265 63.8036 87.0249 63.4627C86.4334 63.1219 85.9622 62.6506 85.6113 62.0491C85.2704 61.4476 85.1 60.7608 85.1 59.9888C85.1 59.2068 85.2704 58.515 85.6113 57.9135C85.9622 57.312 86.4334 56.8458 87.0249 56.5149C87.6265 56.174 88.3082 56.0036 89.0702 56.0036C89.7018 56.0036 90.2732 56.1239 90.7846 56.3645C91.3059 56.6051 91.727 56.9661 92.0478 57.4473L91.4914 57.8533C91.2106 57.4523 90.8597 57.1566 90.4387 56.9661C90.0176 56.7756 89.5614 56.6803 89.0702 56.6803C88.4586 56.6803 87.9072 56.8207 87.4159 57.1014C86.9347 57.3721 86.5537 57.7581 86.273 58.2594C86.0023 58.7506 85.8669 59.3271 85.8669 59.9888C85.8669 60.6505 86.0023 61.232 86.273 61.7333C86.5537 62.2246 86.9347 62.6105 87.4159 62.8913C87.9072 63.162 88.4586 63.2973 89.0702 63.2973C89.5614 63.2973 90.0176 63.2021 90.4387 63.0116C90.8597 62.8211 91.2106 62.5253 91.4914 62.1243L92.0478 62.5303C91.727 63.0116 91.3059 63.3725 90.7846 63.6131C90.2732 63.8537 89.7018 63.974 89.0702 63.974Z" fill="white"/>
<path d="M96.3721 63.974C95.6803 63.974 95.149 63.7836 94.778 63.4026C94.4171 63.0216 94.2366 62.5003 94.2366 61.8386V54.3494H94.9885V61.7634C94.9885 62.2647 95.1139 62.6507 95.3645 62.9213C95.6152 63.192 95.9761 63.3274 96.4473 63.3274C96.9385 63.3274 97.3446 63.182 97.6654 62.8913L97.9812 63.4176C97.7807 63.6081 97.5351 63.7485 97.2443 63.8387C96.9636 63.9289 96.6729 63.974 96.3721 63.974ZM92.7929 56.7104V56.0638H97.4849V56.7104H92.7929Z" fill="white"/>
<path d="M99.7774 63.9139V56.0638H100.529V63.9139H99.7774ZM100.153 54.1539C99.9829 54.1539 99.8375 54.0937 99.7172 53.9734C99.5969 53.8531 99.5368 53.7127 99.5368 53.5523C99.5368 53.3819 99.5969 53.2365 99.7172 53.1162C99.8375 52.9959 99.9829 52.9357 100.153 52.9357C100.334 52.9357 100.479 52.9959 100.589 53.1162C100.71 53.2265 100.77 53.3668 100.77 53.5373C100.77 53.7077 100.71 53.8531 100.589 53.9734C100.479 54.0937 100.334 54.1539 100.153 54.1539Z" fill="white"/>
<path d="M106.466 63.974C105.714 63.974 105.042 63.8036 104.451 63.4627C103.869 63.1219 103.403 62.6506 103.052 62.0491C102.711 61.4476 102.541 60.7608 102.541 59.9888C102.541 59.2068 102.711 58.5201 103.052 57.9285C103.403 57.327 103.869 56.8558 104.451 56.5149C105.042 56.174 105.714 56.0036 106.466 56.0036C107.218 56.0036 107.889 56.174 108.481 56.5149C109.072 56.8558 109.539 57.327 109.879 57.9285C110.22 58.5201 110.391 59.2068 110.391 59.9888C110.391 60.7608 110.22 61.4476 109.879 62.0491C109.539 62.6506 109.072 63.1219 108.481 63.4627C107.889 63.8036 107.218 63.974 106.466 63.974ZM106.466 63.2973C107.067 63.2973 107.609 63.162 108.09 62.8913C108.571 62.6105 108.947 62.2195 109.218 61.7183C109.488 61.217 109.624 60.6405 109.624 59.9888C109.624 59.3271 109.488 58.7506 109.218 58.2594C108.947 57.7581 108.571 57.3721 108.09 57.1014C107.609 56.8207 107.067 56.6803 106.466 56.6803C105.864 56.6803 105.323 56.8207 104.842 57.1014C104.37 57.3721 103.994 57.7581 103.714 58.2594C103.443 58.7506 103.308 59.3271 103.308 59.9888C103.308 60.6405 103.443 61.217 103.714 61.7183C103.994 62.2195 104.37 62.6105 104.842 62.8913C105.323 63.162 105.864 63.2973 106.466 63.2973Z" fill="white"/>
<path d="M116.258 56.0036C116.899 56.0036 117.456 56.1289 117.927 56.3796C118.408 56.6202 118.779 56.9911 119.04 57.4924C119.31 57.9837 119.446 58.5952 119.446 59.3271V63.9139H118.694V59.3873C118.694 58.505 118.468 57.8333 118.017 57.3721C117.576 56.9109 116.954 56.6803 116.152 56.6803C115.541 56.6803 115.009 56.8057 114.558 57.0563C114.107 57.3069 113.761 57.6578 113.521 58.109C113.29 58.5602 113.175 59.1015 113.175 59.7332V63.9139H112.423V56.0638H113.145V58.2443L113.039 58.0037C113.28 57.3821 113.676 56.8959 114.227 56.545C114.779 56.1841 115.455 56.0036 116.258 56.0036Z" fill="white"/>
<path d="M124.226 63.974C123.574 63.974 122.963 63.8788 122.391 63.6883C121.83 63.4978 121.393 63.2572 121.083 62.9665L121.429 62.3649C121.729 62.6256 122.13 62.8512 122.632 63.0417C123.133 63.2221 123.674 63.3123 124.256 63.3123C125.078 63.3123 125.669 63.177 126.03 62.9063C126.391 62.6356 126.572 62.2797 126.572 61.8386C126.572 61.5177 126.477 61.2671 126.286 61.0866C126.106 60.8961 125.86 60.7508 125.549 60.6505C125.238 60.5503 124.897 60.4701 124.527 60.4099C124.156 60.3397 123.785 60.2645 123.414 60.1843C123.043 60.1041 122.702 59.9888 122.391 59.8384C122.08 59.6881 121.83 59.4825 121.639 59.2219C121.459 58.9512 121.368 58.5952 121.368 58.1541C121.368 57.7531 121.479 57.3922 121.699 57.0713C121.92 56.7505 122.251 56.4949 122.692 56.3044C123.133 56.1039 123.684 56.0036 124.346 56.0036C124.837 56.0036 125.329 56.0738 125.82 56.2141C126.321 56.3545 126.727 56.54 127.038 56.7706L126.692 57.3721C126.361 57.1215 125.99 56.941 125.579 56.8307C125.168 56.7204 124.752 56.6653 124.331 56.6653C123.569 56.6653 123.008 56.8057 122.647 57.0864C122.296 57.3671 122.12 57.718 122.12 58.1391C122.12 58.4699 122.211 58.7356 122.391 58.9361C122.582 59.1266 122.832 59.277 123.143 59.3873C123.454 59.4875 123.795 59.5728 124.166 59.6429C124.537 59.7031 124.908 59.7733 125.278 59.8535C125.649 59.9337 125.99 60.049 126.301 60.1994C126.612 60.3397 126.858 60.5402 127.038 60.8009C127.228 61.0515 127.324 61.3924 127.324 61.8235C127.324 62.2546 127.203 62.6306 126.963 62.9514C126.732 63.2722 126.386 63.5229 125.925 63.7034C125.464 63.8838 124.897 63.974 124.226 63.974Z" fill="white"/>
<path d="M49.5566 49.6272V33.8367H52.5794L59.3016 44.9803H57.7L64.3095 33.8367H67.3097L67.3548 49.6272H63.926L63.9034 39.0927H64.5351L59.2565 47.958H57.6098L52.2185 39.0927H52.9854V49.6272H49.5566Z" fill="white"/>
<path d="M78.2971 49.6272V47.2587L78.0715 46.7398V42.499C78.0715 41.747 77.8384 41.1605 77.3722 40.7394C76.9211 40.3184 76.2218 40.1078 75.2744 40.1078C74.6277 40.1078 73.9886 40.2131 73.3569 40.4236C72.7404 40.6191 72.214 40.8898 71.7779 41.2357L70.5147 38.7769C71.1764 38.3107 71.9734 37.9498 72.9058 37.6941C73.8382 37.4385 74.7856 37.3107 75.7481 37.3107C77.5978 37.3107 79.034 37.7468 80.0566 38.619C81.0793 39.4912 81.5906 40.8522 81.5906 42.702V49.6272H78.2971ZM74.5976 49.8077C73.6502 49.8077 72.8381 49.6498 72.1614 49.334C71.4846 49.0031 70.9658 48.5595 70.6049 48.0031C70.244 47.4467 70.0635 46.8226 70.0635 46.1308C70.0635 45.4089 70.2364 44.7773 70.5823 44.2359C70.9433 43.6945 71.5072 43.2734 72.2742 42.9727C73.0411 42.6569 74.0412 42.499 75.2744 42.499H78.5001V44.5517H75.6578C74.8307 44.5517 74.2593 44.6871 73.9434 44.9578C73.6427 45.2285 73.4923 45.5668 73.4923 45.9729C73.4923 46.424 73.6652 46.785 74.0111 47.0556C74.372 47.3113 74.8608 47.4391 75.4774 47.4391C76.0639 47.4391 76.5902 47.3038 77.0564 47.0331C77.5226 46.7474 77.861 46.3338 78.0715 45.7924L78.6129 47.4166C78.3573 48.1986 77.8911 48.7926 77.2143 49.1986C76.5376 49.6047 75.6654 49.8077 74.5976 49.8077Z" fill="white"/>
<path d="M84.7755 49.6272V37.4911H88.2945V49.6272H84.7755ZM86.535 35.7993C85.8883 35.7993 85.362 35.6113 84.9559 35.2353C84.5499 34.8594 84.3469 34.3932 84.3469 33.8367C84.3469 33.2803 84.5499 32.8141 84.9559 32.4382C85.362 32.0622 85.8883 31.8742 86.535 31.8742C87.1816 31.8742 87.708 32.0547 88.114 32.4156C88.5201 32.7615 88.7231 33.2126 88.7231 33.7691C88.7231 34.3556 88.5201 34.8443 88.114 35.2353C87.723 35.6113 87.1967 35.7993 86.535 35.7993Z" fill="white"/>
<path d="M94.4704 47.1459L94.5606 42.8599L100.223 37.4911H104.418L98.982 43.0178L97.1548 44.5066L94.4704 47.1459ZM91.5604 49.6272V32.8893H95.0795V49.6272H91.5604ZM100.606 49.6272L96.5006 44.5292L98.7113 41.7997L104.87 49.6272H100.606Z" fill="white"/>
<path d="M111.968 49.8077C110.585 49.8077 109.367 49.537 108.314 48.9956C107.276 48.4542 106.472 47.7173 105.9 46.785C105.329 45.8375 105.043 44.7623 105.043 43.5592C105.043 42.3411 105.321 41.2658 105.878 40.3334C106.449 39.386 107.224 38.6491 108.201 38.1227C109.179 37.5813 110.284 37.3107 111.517 37.3107C112.705 37.3107 113.773 37.5663 114.72 38.0776C115.683 38.5739 116.442 39.2957 116.999 40.2432C117.555 41.1756 117.833 42.2959 117.833 43.6043C117.833 43.7396 117.826 43.8975 117.811 44.078C117.796 44.2434 117.781 44.4013 117.766 44.5517H107.908V42.499H115.916L114.563 43.108C114.563 42.4764 114.435 41.9275 114.179 41.4613C113.923 40.9951 113.57 40.6342 113.119 40.3785C112.668 40.1078 112.141 39.9725 111.54 39.9725C110.938 39.9725 110.404 40.1078 109.938 40.3785C109.487 40.6342 109.134 41.0026 108.878 41.4839C108.622 41.9501 108.495 42.5065 108.495 43.1531V43.6945C108.495 44.3562 108.637 44.9427 108.923 45.454C109.224 45.9503 109.637 46.3338 110.164 46.6045C110.705 46.8601 111.337 46.988 112.059 46.988C112.705 46.988 113.269 46.8902 113.75 46.6947C114.247 46.4992 114.698 46.206 115.104 45.815L116.976 47.8452C116.42 48.4768 115.721 48.9655 114.878 49.3114C114.036 49.6423 113.066 49.8077 111.968 49.8077Z" fill="white"/>
<path d="M120.176 49.6272V37.4911H123.537V40.9199L123.064 39.9274C123.425 39.0702 124.004 38.4235 124.801 37.9874C125.598 37.5362 126.568 37.3107 127.711 37.3107V40.559C127.56 40.5439 127.425 40.5364 127.305 40.5364C127.184 40.5214 127.056 40.5139 126.921 40.5139C125.959 40.5139 125.177 40.7921 124.575 41.3485C123.989 41.8899 123.695 42.7396 123.695 43.8975V49.6272H120.176Z" fill="white"/>
<path d="M1.02562 41.8599C1.86709 19.144 20.4147 0.999954 43.1572 0.999954C61.421 0.999954 76.9801 12.7006 82.8356 29.0771H60.8902C56.7197 23.4595 50.0579 19.8176 42.5493 19.8176C30.2371 19.8176 20.2058 29.604 19.6858 41.8599H1.02562ZM87.3186 1.00175C105.413 1.16783 120.791 12.8179 126.605 29.0771H104.659C100.675 23.7102 94.4168 20.1466 87.3186 19.8392V1.00175Z" fill="white" stroke="white" stroke-width="2"/>
</svg>
