<?xml version="1.0" encoding="UTF-8"?>
<!DOCTYPE svg PUBLIC "-//W3C//DTD SVG 1.1//EN" "http://www.w3.org/Graphics/SVG/1.1/DTD/svg11.dtd">
<svg xmlns="http://www.w3.org/2000/svg" version="1.1" width="1009px" height="635px" style="shape-rendering:geometricPrecision; text-rendering:geometricPrecision; image-rendering:optimizeQuality; fill-rule:evenodd; clip-rule:evenodd" xmlns:xlink="http://www.w3.org/1999/xlink">
<g><path style="opacity:0.99" fill="#fefffe" d="M 104.5,-0.5 C 140.167,-0.5 175.833,-0.5 211.5,-0.5C 211.333,50.1678 211.5,100.834 212,151.5C 246.667,186.167 281.333,220.833 316,255.5C 316.5,307.166 316.667,358.832 316.5,410.5C 281.167,410.5 245.833,410.5 210.5,410.5C 210.667,324.499 210.5,238.499 210,152.5C 175.695,187.806 141.028,222.806 106,257.5C 105.5,308.499 105.333,359.499 105.5,410.5C 70.1667,410.5 34.8333,410.5 -0.5,410.5C -0.5,323.833 -0.5,237.167 -0.5,150.5C 34.4654,184.965 69.2987,219.632 104,254.5C 104.5,169.501 104.667,84.5007 104.5,-0.5 Z"/></g>
<g><path style="opacity:0.957" fill="#fefffe" d="M 613.5,92.5 C 619.842,92.3338 626.175,92.5005 632.5,93C 637.209,93.4687 641.709,94.6354 646,96.5C 646.091,103.89 645.424,111.224 644,118.5C 633.84,113.112 623.34,112.278 612.5,116C 607.167,120.333 607.167,124.667 612.5,129C 618.679,131.727 625.013,134.06 631.5,136C 648.764,143.732 654.93,156.899 650,175.5C 645.863,189.004 636.696,196.504 622.5,198C 609.712,199.353 597.212,198.186 585,194.5C 584.466,186.374 585.133,178.374 587,170.5C 597.412,176.983 608.578,178.816 620.5,176C 626.309,171.973 626.975,167.14 622.5,161.5C 612.791,157.097 603.124,152.597 593.5,148C 584.225,139.084 581.058,128.251 584,115.5C 586.305,105.86 592.138,99.3603 601.5,96C 605.543,94.5086 609.543,93.3419 613.5,92.5 Z"/></g>
<g><path style="opacity:0.965" fill="#fefffe" d="M 357.5,94.5 C 370.413,94.1776 383.246,94.5109 396,95.5C 402,116.833 408,138.167 414,159.5C 420.785,138.306 427.285,116.973 433.5,95.5C 446.149,94.5009 458.816,94.1676 471.5,94.5C 471.5,128.5 471.5,162.5 471.5,196.5C 463.167,196.5 454.833,196.5 446.5,196.5C 446.667,172.498 446.5,148.498 446,124.5C 439.058,148.489 432.225,172.489 425.5,196.5C 417.5,196.5 409.5,196.5 401.5,196.5C 394.827,171.475 387.993,146.475 381,121.5C 381.373,146.485 381.539,171.485 381.5,196.5C 373.5,196.5 365.5,196.5 357.5,196.5C 357.5,162.5 357.5,128.5 357.5,94.5 Z"/></g>
<g><path style="opacity:0.964" fill="#fefffe" d="M 512.5,94.5 C 522.833,94.5 533.167,94.5 543.5,94.5C 554.427,128.28 565.76,161.946 577.5,195.5C 568.518,196.665 559.518,196.832 550.5,196C 548.013,189.383 545.679,182.716 543.5,176C 532.505,175.5 521.505,175.333 510.5,175.5C 508.5,182.5 506.5,189.5 504.5,196.5C 495.827,196.666 487.16,196.5 478.5,196C 490.132,162.271 501.465,128.437 512.5,94.5 Z M 527.5,118.5 C 530.965,130.01 534.298,141.677 537.5,153.5C 530.866,154.497 524.2,154.83 517.5,154.5C 520.522,142.412 523.855,130.412 527.5,118.5 Z"/></g>
<g><path style="opacity:0.972" fill="#fefffe" d="M 657.5,94.5 C 680.5,94.5 703.5,94.5 726.5,94.5C 726.5,101.5 726.5,108.5 726.5,115.5C 719.167,115.5 711.833,115.5 704.5,115.5C 704.5,142.5 704.5,169.5 704.5,196.5C 696.167,196.5 687.833,196.5 679.5,196.5C 679.5,169.5 679.5,142.5 679.5,115.5C 672.167,115.5 664.833,115.5 657.5,115.5C 657.5,108.5 657.5,101.5 657.5,94.5 Z"/></g>
<g><path style="opacity:0.984" fill="#fefffe" d="M 735.5,94.5 C 756.833,94.5 778.167,94.5 799.5,94.5C 799.5,101.167 799.5,107.833 799.5,114.5C 786.167,114.5 772.833,114.5 759.5,114.5C 759.5,121.167 759.5,127.833 759.5,134.5C 771.833,134.5 784.167,134.5 796.5,134.5C 796.5,141.167 796.5,147.833 796.5,154.5C 784.167,154.5 771.833,154.5 759.5,154.5C 759.5,161.833 759.5,169.167 759.5,176.5C 773.167,176.5 786.833,176.5 800.5,176.5C 800.5,183.167 800.5,189.833 800.5,196.5C 778.833,196.5 757.167,196.5 735.5,196.5C 735.5,162.5 735.5,128.5 735.5,94.5 Z"/></g>
<g><path style="opacity:0.972" fill="#fefffe" d="M 813.5,94.5 C 830.837,94.3334 848.17,94.5001 865.5,95C 879.136,98.2606 885.803,106.927 885.5,121C 886.635,133.07 881.635,141.403 870.5,146C 873.433,148.264 875.6,151.098 877,154.5C 881.308,168.423 885.808,182.256 890.5,196C 881.833,196.667 873.167,196.667 864.5,196C 861.207,185.121 857.707,174.288 854,163.5C 850.372,158.004 845.205,155.67 838.5,156.5C 838.5,169.833 838.5,183.167 838.5,196.5C 830.167,196.5 821.833,196.5 813.5,196.5C 813.5,162.5 813.5,128.5 813.5,94.5 Z M 838.5,114.5 C 843.93,114.161 849.264,114.661 854.5,116C 860.518,119.233 862.351,124.066 860,130.5C 858.773,132.726 856.939,134.226 854.5,135C 849.264,136.339 843.93,136.839 838.5,136.5C 838.5,129.167 838.5,121.833 838.5,114.5 Z"/></g>
<g><path style="opacity:0.956" fill="#fefffe" d="M 948.5,220.5 C 957.019,220.758 965.352,222.092 973.5,224.5C 973.888,231.783 973.888,239.116 973.5,246.5C 964.18,242.822 954.513,241.655 944.5,243C 938.328,244.508 936.161,248.341 938,254.5C 939.167,255.667 940.333,256.833 941.5,258C 950.821,260.885 959.821,264.551 968.5,269C 978.904,278.776 982.071,290.609 978,304.5C 975.695,314.14 969.862,320.64 960.5,324C 944.478,328.548 928.478,328.381 912.5,323.5C 912.543,315.343 913.543,307.343 915.5,299.5C 925.532,305.289 936.199,307.122 947.5,305C 954.705,300.558 955.372,295.225 949.5,289C 942.442,285.423 935.109,282.423 927.5,280C 916.55,274.447 911.217,265.447 911.5,253C 911.231,236.934 918.898,226.934 934.5,223C 939.294,222.098 943.961,221.265 948.5,220.5 Z"/></g>
<g><path style="opacity:0.974" fill="#fefffe" d="M 357.5,222.5 C 373.17,222.333 388.837,222.5 404.5,223C 424.767,227.001 432.267,239.168 427,259.5C 424.559,265.608 420.392,270.108 414.5,273C 425.714,276.551 431.047,284.218 430.5,296C 429.961,312.876 421.294,322.543 404.5,325C 388.837,325.5 373.17,325.667 357.5,325.5C 357.5,291.167 357.5,256.833 357.5,222.5 Z M 381.5,242.5 C 386.874,242.523 392.207,243.023 397.5,244C 405.079,249.167 405.412,254.833 398.5,261C 392.928,262.351 387.262,262.851 381.5,262.5C 381.5,255.833 381.5,249.167 381.5,242.5 Z M 381.5,282.5 C 387.593,282.139 393.593,282.639 399.5,284C 403.802,285.935 405.802,289.268 405.5,294C 405.883,299.233 403.55,302.566 398.5,304C 392.899,305.217 387.232,305.717 381.5,305.5C 381.5,297.833 381.5,290.167 381.5,282.5 Z"/></g>
<g><path style="opacity:0.97" fill="#fefffe" d="M 442.5,222.5 C 450.5,222.5 458.5,222.5 466.5,222.5C 466.085,246.198 466.585,269.865 468,293.5C 470.734,303.945 477.234,307.778 487.5,305C 492.497,301.514 495.331,296.681 496,290.5C 496.5,267.836 496.667,245.169 496.5,222.5C 504.833,222.5 513.167,222.5 521.5,222.5C 521.667,246.836 521.5,271.169 521,295.5C 516.753,316.894 503.587,327.561 481.5,327.5C 460.983,327.843 448.149,318.176 443,298.5C 442.5,273.169 442.333,247.836 442.5,222.5 Z"/></g>
<g><path style="opacity:0.993" fill="#fefffe" d="M 537.5,222.5 C 545.5,222.5 553.5,222.5 561.5,222.5C 561.5,256.833 561.5,291.167 561.5,325.5C 553.5,325.5 545.5,325.5 537.5,325.5C 537.5,291.167 537.5,256.833 537.5,222.5 Z"/></g>
<g><path style="opacity:0.959" fill="#fefffe" d="M 578.5,222.5 C 586.833,222.5 595.167,222.5 603.5,222.5C 603.5,249.833 603.5,277.167 603.5,304.5C 615.833,304.5 628.167,304.5 640.5,304.5C 640.5,311.5 640.5,318.5 640.5,325.5C 619.833,325.5 599.167,325.5 578.5,325.5C 578.5,291.167 578.5,256.833 578.5,222.5 Z"/></g>
<g><path style="opacity:0.968" fill="#fefffe" d="M 650.5,222.5 C 664.504,222.333 678.504,222.5 692.5,223C 722.67,225.845 737.337,242.512 736.5,273C 737.761,303.394 723.428,320.727 693.5,325C 679.171,325.5 664.837,325.667 650.5,325.5C 650.5,291.167 650.5,256.833 650.5,222.5 Z M 675.5,243.5 C 698.197,241.317 710.197,251.484 711.5,274C 710.41,296.917 698.41,307.084 675.5,304.5C 675.5,284.167 675.5,263.833 675.5,243.5 Z"/></g>
<g><path style="opacity:0.965" fill="#fefffe" d="M 749.5,222.5 C 770.833,222.5 792.167,222.5 813.5,222.5C 813.5,229.167 813.5,235.833 813.5,242.5C 800.5,242.5 787.5,242.5 774.5,242.5C 774.5,249.167 774.5,255.833 774.5,262.5C 786.833,262.5 799.167,262.5 811.5,262.5C 811.5,269.5 811.5,276.5 811.5,283.5C 799.167,283.5 786.833,283.5 774.5,283.5C 774.5,290.833 774.5,298.167 774.5,305.5C 787.833,305.5 801.167,305.5 814.5,305.5C 814.5,312.167 814.5,318.833 814.5,325.5C 792.833,325.5 771.167,325.5 749.5,325.5C 749.5,291.167 749.5,256.833 749.5,222.5 Z"/></g>
<g><path style="opacity:0.959" fill="#fefffe" d="M 827.5,222.5 C 843.837,222.333 860.17,222.5 876.5,223C 896.767,227.001 904.267,239.168 899,259.5C 896.592,266.909 891.758,272.076 884.5,275C 887.728,276.563 889.895,279.063 891,282.5C 896.011,296.699 900.511,311.032 904.5,325.5C 895.808,325.831 887.141,325.498 878.5,324.5C 875.7,313.269 872.2,302.269 868,291.5C 864.275,286.115 859.108,284.115 852.5,285.5C 852.5,298.833 852.5,312.167 852.5,325.5C 844.167,325.5 835.833,325.5 827.5,325.5C 827.5,291.167 827.5,256.833 827.5,222.5 Z M 852.5,242.5 C 858.615,242.54 864.615,243.374 870.5,245C 877.167,251 877.167,257 870.5,263C 864.625,264.524 858.625,265.357 852.5,265.5C 852.5,257.833 852.5,250.167 852.5,242.5 Z"/></g>
<g><path style="opacity:0.683" fill="#fefffe" d="M 1008.5,316.5 C 1008.5,319.5 1008.5,322.5 1008.5,325.5C 1002.98,329.828 997.811,329.495 993,324.5C 991.337,315.833 994.837,312 1003.5,313C 1005.58,313.697 1007.25,314.864 1008.5,316.5 Z M 1003.5,316.5 C 1001.5,316.5 999.5,316.5 997.5,316.5C 999.642,314.269 1001.64,314.269 1003.5,316.5 Z M 997.5,316.5 C 997.664,319.187 997.497,321.854 997,324.5C 994.883,321.583 995.049,318.916 997.5,316.5 Z M 1004.5,317.5 C 1006.96,319.493 1007.12,321.826 1005,324.5C 1004.69,323.234 1004.19,322.067 1003.5,321C 1004.34,319.989 1004.67,318.822 1004.5,317.5 Z M 999.5,321.5 C 1000.96,322.406 1001.96,323.739 1002.5,325.5C 1001.68,326.386 1000.68,326.719 999.5,326.5C 999.5,324.833 999.5,323.167 999.5,321.5 Z"/></g>
<g><path style="opacity:0.909" fill="#fefffe" d="M 381.5,354.5 C 394.807,353.233 404.307,358.566 410,370.5C 412.495,380.42 411.829,390.087 408,399.5C 405.994,402.672 403.494,405.338 400.5,407.5C 404.5,408.833 408.5,410.167 412.5,411.5C 411.761,414.65 410.261,417.316 408,419.5C 397.393,415.52 386.56,412.353 375.5,410C 364.718,404.625 359.385,395.792 359.5,383.5C 359.907,368.272 367.24,358.605 381.5,354.5 Z M 383.5,363.5 C 391.546,363.107 396.713,366.773 399,374.5C 402.077,384.692 399.91,393.526 392.5,401C 381.676,404.54 374.843,400.707 372,389.5C 370.125,380.469 372.292,372.636 378.5,366C 380.315,365.243 381.981,364.41 383.5,363.5 Z"/></g>
<g><path style="opacity:0.903" fill="#fefffe" d="M 703.5,354.5 C 709.952,353.978 716.119,354.978 722,357.5C 721.82,360.706 720.82,363.706 719,366.5C 714.025,363.635 708.858,363.135 703.5,365C 699.5,368.333 699.5,371.667 703.5,375C 709.861,377.263 715.694,380.429 721,384.5C 727.827,401.49 721.994,410.49 703.5,411.5C 698.661,411.624 693.995,410.79 689.5,409C 688.595,405.41 689.095,401.91 691,398.5C 697.596,402.931 704.429,403.431 711.5,400C 714.167,397 714.167,394 711.5,391C 706.167,388.333 700.833,385.667 695.5,383C 689.304,377.337 687.804,370.503 691,362.5C 694.378,358.406 698.545,355.739 703.5,354.5 Z"/></g>
<g><path style="opacity:0.906" fill="#fefffe" d="M 435.5,355.5 C 439.167,355.5 442.833,355.5 446.5,355.5C 446.333,368.171 446.5,380.838 447,393.5C 449.384,401.775 454.55,404.275 462.5,401C 464.617,399.269 466.117,397.102 467,394.5C 467.5,381.504 467.667,368.504 467.5,355.5C 471.167,355.5 474.833,355.5 478.5,355.5C 478.667,368.837 478.5,382.171 478,395.5C 475.27,406.724 468.103,412.057 456.5,411.5C 447.027,412.172 440.527,408.172 437,399.5C 435.568,384.892 435.068,370.225 435.5,355.5 Z"/></g>
<g><path style="opacity:0.936" fill="#fefffe" d="M 505.5,355.5 C 516.167,355.5 526.833,355.5 537.5,355.5C 537.5,358.5 537.5,361.5 537.5,364.5C 530.5,364.5 523.5,364.5 516.5,364.5C 516.5,368.833 516.5,373.167 516.5,377.5C 523.167,377.5 529.833,377.5 536.5,377.5C 536.5,380.5 536.5,383.5 536.5,386.5C 529.833,386.5 523.167,386.5 516.5,386.5C 516.5,391.5 516.5,396.5 516.5,401.5C 523.833,401.5 531.167,401.5 538.5,401.5C 538.5,404.5 538.5,407.5 538.5,410.5C 527.5,410.5 516.5,410.5 505.5,410.5C 505.5,392.167 505.5,373.833 505.5,355.5 Z"/></g>
<g><path style="opacity:0.922" fill="#fefffe" d="M 562.5,355.5 C 573.5,355.5 584.5,355.5 595.5,355.5C 595.5,358.5 595.5,361.5 595.5,364.5C 588.167,364.5 580.833,364.5 573.5,364.5C 573.5,368.833 573.5,373.167 573.5,377.5C 580.167,377.5 586.833,377.5 593.5,377.5C 593.5,380.5 593.5,383.5 593.5,386.5C 586.833,386.5 580.167,386.5 573.5,386.5C 573.5,391.5 573.5,396.5 573.5,401.5C 581.167,401.5 588.833,401.5 596.5,401.5C 596.5,404.5 596.5,407.5 596.5,410.5C 585.167,410.5 573.833,410.5 562.5,410.5C 562.5,392.167 562.5,373.833 562.5,355.5 Z"/></g>
<g><path style="opacity:0.908" fill="#fefffe" d="M 620.5,355.5 C 624.767,355.203 628.934,355.536 633,356.5C 640.759,368.346 647.759,380.679 654,393.5C 653.773,380.849 653.606,368.183 653.5,355.5C 657.167,355.5 660.833,355.5 664.5,355.5C 664.5,373.833 664.5,392.167 664.5,410.5C 660.233,410.797 656.066,410.464 652,409.5C 644.747,397.329 637.747,384.996 631,372.5C 630.5,385.162 630.333,397.829 630.5,410.5C 627.167,410.5 623.833,410.5 620.5,410.5C 620.5,392.167 620.5,373.833 620.5,355.5 Z"/></g>
<g><path style="opacity:0.939" fill="#fefffe" d="M 748.5,355.5 C 752.167,355.5 755.833,355.5 759.5,355.5C 759.5,370.833 759.5,386.167 759.5,401.5C 766.833,401.5 774.167,401.5 781.5,401.5C 781.5,404.5 781.5,407.5 781.5,410.5C 770.5,410.5 759.5,410.5 748.5,410.5C 748.5,392.167 748.5,373.833 748.5,355.5 Z"/></g>
<g><path style="opacity:0.912" fill="#fefffe" d="M 817.5,355.5 C 822.214,355.173 826.88,355.507 831.5,356.5C 837.608,374.324 843.608,392.157 849.5,410C 845.5,410.667 841.5,410.667 837.5,410C 835.619,405.649 834.119,401.149 833,396.5C 827.333,395.167 821.667,395.167 816,396.5C 814.881,401.149 813.381,405.649 811.5,410C 807.789,410.825 804.122,410.659 800.5,409.5C 806.479,391.58 812.146,373.58 817.5,355.5 Z M 823.5,367.5 C 824.117,367.611 824.617,367.944 825,368.5C 826.641,374.422 828.474,380.255 830.5,386C 826.459,386.827 822.459,386.66 818.5,385.5C 820.794,379.657 822.46,373.657 823.5,367.5 Z"/></g>
<g><path style="opacity:0.922" fill="#fefffe" d="M 871.5,355.5 C 875.884,355.174 880.217,355.508 884.5,356.5C 891.838,367.838 898.671,379.505 905,391.5C 905.5,379.505 905.667,367.505 905.5,355.5C 908.833,355.5 912.167,355.5 915.5,355.5C 915.5,373.833 915.5,392.167 915.5,410.5C 911.445,410.824 907.445,410.491 903.5,409.5C 896.08,396.996 888.914,384.329 882,371.5C 881.5,384.496 881.333,397.496 881.5,410.5C 878.167,410.5 874.833,410.5 871.5,410.5C 871.5,392.167 871.5,373.833 871.5,355.5 Z"/></g>
<g><path style="opacity:0.924" fill="#fefffe" d="M 943.5,355.5 C 951.84,355.334 960.173,355.5 968.5,356C 982.515,359.013 989.515,367.68 989.5,382C 989.133,399.749 980.133,409.415 962.5,411C 955.797,411.713 949.13,411.546 942.5,410.5C 942.18,392.09 942.514,373.757 943.5,355.5 Z M 956.5,363.5 C 975.064,364.914 981.564,374.581 976,392.5C 970.694,400.554 963.194,403.887 953.5,402.5C 953.5,389.833 953.5,377.167 953.5,364.5C 954.791,364.737 955.791,364.404 956.5,363.5 Z"/></g>
<g><path style="opacity:0.876" fill="#fefffe" d="M -0.5,461.5 C 328.5,461.5 657.5,461.5 986.5,461.5C 986.5,462.833 986.5,464.167 986.5,465.5C 657.5,465.5 328.5,465.5 -0.5,465.5C -0.5,464.167 -0.5,462.833 -0.5,461.5 Z"/></g>
<g><path style="opacity:0.929" fill="#fefffe" d="M -0.5,633.5 C -0.5,630.5 -0.5,627.5 -0.5,624.5C 4.64193,587.365 9.3086,550.031 13.5,512.5C 28.5037,512.333 43.5037,512.5 58.5,513C 81.844,516.469 91.344,529.969 87,553.5C 82.2703,573.226 69.7703,584.059 49.5,586C 38.8385,586.5 28.1719,586.667 17.5,586.5C 15.9156,602.176 14.2489,617.842 12.5,633.5C 8.16667,633.5 3.83333,633.5 -0.5,633.5 Z M 25.5,525.5 C 36.8382,525.333 48.1716,525.5 59.5,526C 71.7081,530.243 76.2081,538.743 73,551.5C 71.3633,563.134 64.8633,570.301 53.5,573C 42.1716,573.5 30.8382,573.667 19.5,573.5C 21.5005,557.496 23.5005,541.496 25.5,525.5 Z"/></g>
<g><path style="opacity:0.933" fill="#fefffe" d="M 350.5,634.5 C 343.167,634.5 335.833,634.5 328.5,634.5C 318.475,631.179 312.642,624.179 311,613.5C 309.585,600.206 310.918,587.206 315,574.5C 323.76,554.37 338.926,546.87 360.5,552C 363.618,552.873 366.618,554.039 369.5,555.5C 371.746,541.195 373.746,526.862 375.5,512.5C 379.833,512.5 384.167,512.5 388.5,512.5C 383.98,552.85 379.313,593.183 374.5,633.5C 371.5,633.5 368.5,633.5 365.5,633.5C 365.617,631.516 364.95,629.85 363.5,628.5C 359.196,630.823 354.862,632.823 350.5,634.5 Z M 346.5,562.5 C 353.83,562.569 360.83,564.069 367.5,567C 368.081,567.893 368.415,568.893 368.5,570C 366.639,586.26 364.305,602.426 361.5,618.5C 352.494,622.626 343.16,623.792 333.5,622C 328.938,620.373 326.105,617.206 325,612.5C 322.661,598.212 324.661,584.545 331,571.5C 334.996,566.259 340.163,563.259 346.5,562.5 Z"/></g>
<g><path style="opacity:0.93" fill="#fefffe" d="M 447.5,512.5 C 453.425,512.192 459.259,512.525 465,513.5C 474.333,541.5 483.667,569.5 493,597.5C 509.732,569.759 526.066,541.759 542,513.5C 547.741,512.525 553.575,512.192 559.5,512.5C 554.75,552.168 549.917,591.835 545,631.5C 540.822,633.399 536.322,634.065 531.5,633.5C 535.912,601.204 539.745,568.871 543,536.5C 527.626,562.749 512.126,588.916 496.5,615C 494.667,615.167 492.833,615.333 491,615.5C 488.698,615.4 486.698,614.733 485,613.5C 476.279,587.061 467.279,560.728 458,534.5C 454.083,567.499 450.25,600.499 446.5,633.5C 442.167,633.5 437.833,633.5 433.5,633.5C 438.249,593.175 442.916,552.842 447.5,512.5 Z"/></g>
<g><path style="opacity:0.934" fill="#fefffe" d="M 814.5,634.5 C 807.5,634.5 800.5,634.5 793.5,634.5C 789.148,632.828 784.814,630.828 780.5,628.5C 779.376,629.914 778.376,631.414 777.5,633C 774.854,633.497 772.187,633.664 769.5,633.5C 774.084,593.158 778.751,552.825 783.5,512.5C 788.167,512.5 792.833,512.5 797.5,512.5C 795.42,526.799 793.92,541.132 793,555.5C 808.026,548.003 822.36,549.003 836,558.5C 839.09,562.682 841.09,567.349 842,572.5C 844.061,589.802 841.061,606.135 833,621.5C 828.294,628.059 822.127,632.392 814.5,634.5 Z M 808.5,562.5 C 822.898,561.731 829.898,568.564 829.5,583C 829.187,594.057 826.687,604.557 822,614.5C 817.461,620.351 811.461,623.351 804,623.5C 797.547,623.154 791.381,621.654 785.5,619C 784.919,618.107 784.585,617.107 784.5,616C 786.467,599.765 788.8,583.598 791.5,567.5C 796.998,564.773 802.664,563.107 808.5,562.5 Z"/></g>
<g><path style="opacity:0.929" fill="#fefffe" d="M 126.5,550.5 C 132.203,550.375 137.87,550.708 143.5,551.5C 143.001,555.49 142.501,559.49 142,563.5C 141.586,563.957 141.086,564.291 140.5,564.5C 132.174,562.23 123.841,562.397 115.5,565C 112.966,565.516 110.8,566.683 109,568.5C 106.252,590.147 103.752,611.814 101.5,633.5C 96.8333,633.5 92.1667,633.5 87.5,633.5C 90.5835,607.165 93.7501,580.832 97,554.5C 99.4699,552.513 102.303,552.013 105.5,553C 106.09,554.509 106.756,556.009 107.5,557.5C 113.593,554.14 119.927,551.806 126.5,550.5 Z"/></g>
<g><path style="opacity:0.934" fill="#fefffe" d="M 189.5,634.5 C 181.5,634.5 173.5,634.5 165.5,634.5C 151.751,629.2 145.751,619.033 147.5,604C 147.314,591.261 149.814,579.094 155,567.5C 162.204,555.175 173.037,549.509 187.5,550.5C 208.6,550.433 218.6,560.933 217.5,582C 218.022,596.396 214.855,609.896 208,622.5C 202.967,628.422 196.801,632.422 189.5,634.5 Z M 183.5,562.5 C 197.475,561.299 204.475,567.632 204.5,581.5C 204.46,593.417 201.96,604.75 197,615.5C 187.785,623.564 177.618,625.064 166.5,620C 162.083,616.028 160.083,611.028 160.5,605C 160.699,592.958 163.199,581.458 168,570.5C 172.361,566.071 177.528,563.404 183.5,562.5 Z"/></g>
<g><path style="opacity:0.925" fill="#fefffe" d="M 612.5,634.5 C 603.5,634.5 594.5,634.5 585.5,634.5C 572.029,629.105 565.696,618.939 566.5,604C 566.684,589.093 570.517,575.26 578,562.5C 587.747,552.474 599.581,548.64 613.5,551C 630.974,553.47 637.807,563.303 634,580.5C 629.143,592.192 620.309,598.359 607.5,599C 598.506,599.5 589.506,599.666 580.5,599.5C 578.318,614.194 584.485,622.194 599,623.5C 607.936,623.203 616.603,621.537 625,618.5C 625.5,618.833 626,619.167 626.5,619.5C 625.746,622.777 625.246,626.11 625,629.5C 621.035,631.873 616.869,633.539 612.5,634.5 Z M 603.5,562.5 C 609.393,562.396 614.893,563.729 620,566.5C 624.524,576.84 621.358,583.674 610.5,587C 601.173,587.5 591.839,587.666 582.5,587.5C 583.529,573.827 590.529,565.494 603.5,562.5 Z"/></g>
<g><path style="opacity:0.933" fill="#fefffe" d="M 682.5,550.5 C 692.785,549.149 701.785,551.816 709.5,558.5C 721.698,550.624 734.698,548.791 748.5,553C 756.044,556.74 759.71,562.907 759.5,571.5C 757,591.499 754.5,611.499 752,631.5C 747.822,633.399 743.322,634.065 738.5,633.5C 740.54,613.474 742.873,593.474 745.5,573.5C 745.113,565.442 740.78,561.776 732.5,562.5C 725.625,562.844 719.125,564.51 713,567.5C 710.335,589.489 707.835,611.489 705.5,633.5C 700.833,633.5 696.167,633.5 691.5,633.5C 694.575,611.901 696.742,590.234 698,568.5C 697.535,567.069 696.701,565.903 695.5,565C 685.711,561.909 676.211,562.743 667,567.5C 663.91,589.473 661.077,611.473 658.5,633.5C 653.821,633.666 649.155,633.499 644.5,633C 648.28,606.264 651.613,579.43 654.5,552.5C 657.5,552.5 660.5,552.5 663.5,552.5C 663.491,554.308 663.991,555.975 665,557.5C 670.585,554.256 676.419,551.923 682.5,550.5 Z"/></g>
<g><path style="opacity:0.924" fill="#fefffe" d="M 901.5,634.5 C 892.5,634.5 883.5,634.5 874.5,634.5C 864.76,631.413 858.927,624.746 857,614.5C 854.618,596.787 857.618,580.121 866,564.5C 873.645,554.597 883.812,549.931 896.5,550.5C 921.708,551.866 929.541,564.199 920,587.5C 913.975,594.929 906.141,598.762 896.5,599C 887.506,599.5 878.506,599.666 869.5,599.5C 869.205,605.011 870.038,610.344 872,615.5C 876.024,620.913 881.524,623.579 888.5,623.5C 897.731,622.987 906.731,621.32 915.5,618.5C 915.16,622.548 914.494,626.548 913.5,630.5C 909.45,632.072 905.45,633.406 901.5,634.5 Z M 892.5,562.5 C 898.966,562.209 904.799,563.876 910,567.5C 913.187,577.628 909.687,584.128 899.5,587C 890.173,587.5 880.839,587.666 871.5,587.5C 872.512,573.843 879.512,565.509 892.5,562.5 Z"/></g>
<g><path style="opacity:0.931" fill="#fefffe" d="M 973.5,550.5 C 979.334,550.05 985.001,550.717 990.5,552.5C 989.793,555.983 989.127,559.483 988.5,563C 988.167,563.5 987.833,564 987.5,564.5C 976.873,561.952 966.539,562.952 956.5,567.5C 953.34,588.776 950.507,610.11 948,631.5C 943.822,633.399 939.322,634.065 934.5,633.5C 937.582,606.507 940.582,579.507 943.5,552.5C 946.572,552.183 949.572,552.516 952.5,553.5C 952.977,554.931 953.643,556.264 954.5,557.5C 960.593,554.14 966.927,551.806 973.5,550.5 Z"/></g>
<g><path style="opacity:0.938" fill="#fefffe" d="M 266.5,634.5 C 259.167,634.5 251.833,634.5 244.5,634.5C 232.153,629.709 227.653,620.709 231,607.5C 233.25,589.168 235.417,570.835 237.5,552.5C 242.214,552.173 246.88,552.507 251.5,553.5C 248.835,573.484 246.169,593.484 243.5,613.5C 245.219,620.712 249.886,624.045 257.5,623.5C 263.286,622.902 268.953,621.735 274.5,620C 276.333,619.5 277.5,618.333 278,616.5C 280.83,595.197 283.33,573.864 285.5,552.5C 290.167,552.5 294.833,552.5 299.5,552.5C 296.248,579.514 292.915,606.514 289.5,633.5C 286.813,633.664 284.146,633.497 281.5,633C 280.91,631.491 280.244,629.991 279.5,628.5C 275.196,630.823 270.862,632.823 266.5,634.5 Z"/></g>
</svg>
