<svg width="323" height="204" viewBox="0 0 323 204" fill="none" xmlns="http://www.w3.org/2000/svg">
<path d="M131.004 134.231C128.584 133.561 126.42 132.842 124.231 131.991C123.847 131.861 123.485 131.757 123.098 131.733C119.081 131.526 115.502 128.567 115.502 122.925C115.502 117.57 118.824 113.811 123.794 113.811C128.815 113.811 131.804 117.672 131.804 122.565C131.804 126.763 129.87 129.569 127.322 130.573V130.678C128.815 131.089 130.488 131.449 131.906 131.733L131.004 134.231ZM128.455 122.718C128.455 119.396 126.831 116.359 123.689 116.359C120.523 116.359 118.824 119.372 118.85 122.847C118.824 126.325 120.601 129.184 123.64 129.184C126.704 129.184 128.455 126.351 128.455 122.718Z" fill="#205375"/>
<path d="M142.812 114.093V124.214C142.812 127.613 144.229 129.184 146.364 129.184C148.657 129.184 150.021 127.613 150.021 124.214V114.093H153.188V124.009C153.188 129.364 150.433 131.732 146.263 131.732C142.245 131.732 139.643 129.493 139.643 124.033V114.093H142.812Z" fill="#205375"/>
<path d="M171.665 123.749H165.127V128.849H172.439V131.449H161.957V114.093H172.052V116.695H165.127V121.174H171.665V123.749Z" fill="#205375"/>
<path d="M190.067 123.749H183.528V128.849H190.84V131.449H180.359V114.093H190.453V116.695H183.528V121.174H190.067V123.749Z" fill="#205375"/>
<path d="M198.761 131.449V114.092H202.365L206.847 121.535C208.007 123.466 209.011 125.475 209.808 127.354H209.86C209.655 125.037 209.577 122.797 209.577 120.144V114.092H212.512V131.449H209.241L204.712 123.826C203.603 121.921 202.443 119.784 201.595 117.827L201.516 117.851C201.648 120.093 201.672 122.384 201.672 125.243V131.449H198.761Z" fill="#205375"/>
<path d="M221.229 127.999C222.26 128.592 223.804 129.107 225.427 129.107C227.461 129.107 228.593 128.154 228.593 126.737C228.593 125.423 227.72 124.65 225.504 123.853C222.647 122.823 220.819 121.304 220.819 118.804C220.819 115.971 223.187 113.811 226.947 113.811C228.825 113.811 230.217 114.223 231.117 114.685L230.345 117.233C229.728 116.9 228.517 116.409 226.895 116.409C224.887 116.409 224.011 117.493 224.011 118.495C224.011 119.835 225.016 120.453 227.333 121.355C230.345 122.488 231.812 124.008 231.812 126.505C231.812 129.285 229.701 131.707 225.22 131.707C223.393 131.707 221.487 131.192 220.533 130.625L221.229 127.999Z" fill="#205375"/>
<path d="M239.812 114.093H242.979V128.797H250.111V131.45H239.812V114.093Z" fill="#205375"/>
<path d="M261.228 126.53L259.735 131.449H256.464L262.025 114.092H266.068L271.707 131.449H268.309L266.739 126.53H261.228ZM266.196 124.135L264.832 119.86C264.497 118.805 264.215 117.62 263.957 116.616H263.905C263.648 117.62 263.391 118.831 263.081 119.86L261.741 124.135H266.196Z" fill="#205375"/>
<path d="M279.268 131.449V114.092H282.871L287.353 121.535C288.511 123.466 289.515 125.475 290.315 127.354H290.365C290.159 125.037 290.081 122.797 290.081 120.144V114.092H293.016V131.449H289.748L285.215 123.826C284.107 121.921 282.949 119.784 282.099 117.827L282.02 117.851C282.152 120.093 282.177 122.384 282.177 125.243V131.449H279.268Z" fill="#205375"/>
<path d="M301.812 114.324C303.204 114.093 304.979 113.964 306.86 113.964C310.105 113.964 312.344 114.635 313.941 115.972C315.615 117.339 316.647 119.396 316.647 122.361C316.647 125.449 315.591 127.767 313.941 129.262C312.216 130.831 309.46 131.628 306.088 131.628C304.232 131.628 302.844 131.526 301.812 131.397V114.324ZM304.979 129.029C305.416 129.106 306.088 129.106 306.732 129.106C310.851 129.131 313.297 126.867 313.297 122.463C313.324 118.626 311.109 116.437 307.143 116.437C306.139 116.437 305.416 116.515 304.979 116.617V129.029Z" fill="#205375"/>
<path d="M33.8694 -2.25846e-06V82.3131L67.6047 48.5467V-2.25846e-06H33.8694Z" fill="#205375"/>
<path d="M0.125488 131.448H33.8614V82.3213L0.125488 48.5573V131.448Z" fill="#205375"/>
<path d="M67.6255 131.448V48.5933L101.363 82.3568V131.448H67.6255Z" fill="#205375"/>
<path d="M114.574 30.4547H126.611L132.687 52.1094H132.77L139.137 30.4547H150.721V63.0294H143.247L143.368 38.0134H143.287L135.976 63.0294H128.95L121.967 38.0134H121.887L122.052 63.0294H114.574V30.4547Z" fill="#205375"/>
<path d="M169.08 37.176H168.996L165.299 49.9147H172.484L169.08 37.176ZM164.396 30.4547H173.76L184.809 63.0307H176.428L174.295 56.076H163.532L161.275 63.0307H153.509L164.396 30.4547Z" fill="#205375"/>
<path d="M187.889 55.004C189.86 56.2173 192.613 57.1507 195.775 57.1507C198.196 57.1507 200.496 56.592 200.496 53.9773C200.496 47.9093 186.944 51.7373 186.944 39.8813C186.944 32.044 193.679 29.896 199.428 29.896C202.18 29.896 204.893 30.364 206.824 31.1093L206.331 37.8267C204.363 36.8 202.14 36.3333 199.965 36.3333C198.035 36.3333 194.832 36.5213 194.832 39.368C194.832 44.6387 208.384 41.0947 208.384 52.8573C208.384 61.3053 202.14 63.5867 195.775 63.5867C193.104 63.5867 189.775 63.12 187.231 62.1933L187.889 55.004Z" fill="#205375"/>
<path d="M217.831 36.8974H210.765V30.4547H232.533V36.8974H225.471V63.0294H217.831V36.8974Z" fill="#205375"/>
<path d="M235.532 30.4547H255.737V36.6107H243.171V43.3347H255.04V49.4934H243.171V56.8734H256.191V63.0294H235.532V30.4547Z" fill="#205375"/>
<path d="M268.267 43.9894H270.277C272.741 43.9894 275.865 43.8907 275.865 40.2067C275.865 37.176 273.196 36.6107 270.277 36.6107H268.267V43.9894ZM260.627 30.4534H274.263C279.356 30.4534 283.504 33.068 283.504 38.6693C283.504 43.012 281.696 45.9053 278.003 46.8827V46.9734C280.464 47.7214 280.631 50.1947 282.064 54.168L284.861 63.0294H276.889L275.249 57.152C273.688 51.552 272.704 50.1507 269.865 50.1507H268.267V63.0294H260.627V30.4534Z" fill="#205375"/>
<path d="M122.214 98.0047H124.478C127.271 98.0047 130.186 97.538 130.186 94.2183C130.186 90.6767 127.182 90.348 124.556 90.348H122.214V98.0047ZM122.214 84.4667H124.351C126.857 84.4667 129.444 83.7667 129.444 81.0136C129.444 78.0297 126.975 77.7433 124.429 77.7433H122.214V84.4667ZM114.574 71.586H127.759C133.096 71.586 137.085 74.2433 137.085 79.8475C137.085 83.9552 135.235 86.2396 132.032 87.4527V87.5485C135.849 88.4303 137.825 90.7677 137.825 94.7339C137.825 102.529 131.785 104.161 126.653 104.161H114.574V71.586Z" fill="#205375"/>
<path d="M166.9 91.7928C166.9 100.709 161.805 104.718 154.328 104.718C146.856 104.718 141.768 100.709 141.768 91.7928V71.5871H149.403V90.3464C149.403 94.6437 150.431 98.2828 154.328 98.2828C158.232 98.2828 159.265 94.6437 159.265 90.3464V71.5871H166.9V91.7928Z" fill="#205375"/>
<path d="M172.196 71.585H179.837V104.161H172.196V71.585Z" fill="#205375"/>
<path d="M185.545 71.586H193.184V97.7251H205.015V104.161H185.545V71.586Z" fill="#205375"/>
<path d="M216.02 97.7251H218.975C224.688 97.7251 227.893 94.3656 227.893 87.8729C227.893 81.3828 224.568 78.0297 218.975 78.0297H216.02V97.7251ZM208.381 71.5865H218.813C228.796 71.5865 235.777 75.1371 235.777 87.7308C235.777 99.9156 228.587 104.162 218.813 104.162H208.381V71.5865Z" fill="#205375"/>
<path d="M240.131 71.586H260.341V77.7433H247.769V84.4667H259.639V90.6256H247.769V98.0047H260.791V104.161H240.131V71.586Z" fill="#205375"/>
<path d="M272.861 85.1214H274.879C277.339 85.1214 280.46 85.0235 280.46 81.3396C280.46 78.309 277.792 77.7423 274.879 77.7423H272.861V85.1214ZM265.223 71.585H278.859C283.956 71.585 288.101 74.2006 288.101 79.8016C288.101 84.1433 286.295 87.0366 282.599 88.0142V88.1052C285.06 88.8543 285.227 91.3251 286.668 95.2995L289.457 104.161H281.489L279.847 98.2839C278.288 92.6844 277.299 91.2823 274.464 91.2823H272.861V104.161H265.223V71.585Z" fill="#205375"/>
<path d="M292.905 96.1355C294.876 97.3485 297.629 98.2819 300.791 98.2819C303.217 98.2819 305.512 97.724 305.512 95.1109C305.512 89.0407 291.961 92.8693 291.961 81.0131C291.961 73.1767 298.7 71.0276 304.448 71.0276C307.201 71.0276 309.909 71.4964 311.845 72.2407L311.348 78.9579C309.379 77.9313 307.161 77.4647 304.984 77.4647C303.055 77.4647 299.849 77.6537 299.849 80.5C299.849 85.7704 313.405 82.2261 313.405 93.9871C313.405 102.437 307.161 104.719 300.791 104.719C298.125 104.719 294.796 104.252 292.249 103.326L292.905 96.1355Z" fill="#205375"/>
<path d="M319.969 102.664H320.297C320.657 102.664 320.969 102.557 320.969 102.255C320.969 102.013 320.813 101.846 320.344 101.846C320.157 101.846 320.047 101.862 319.969 101.878V102.664ZM319.969 104.088H319.484V101.56C319.751 101.513 320.031 101.484 320.391 101.484C320.829 101.484 321.048 101.56 321.22 101.682C321.376 101.787 321.487 101.982 321.487 102.211C321.487 102.529 321.251 102.726 320.969 102.817V102.846C321.204 102.938 321.329 103.135 321.407 103.453C321.487 103.844 321.533 103.997 321.596 104.088H321.096C321.017 103.997 320.956 103.771 320.891 103.422C320.829 103.149 320.657 103.029 320.283 103.029H319.969V104.088ZM320.407 100.773C319.28 100.773 318.423 101.664 318.423 102.755C318.423 103.875 319.28 104.753 320.437 104.753C321.564 104.768 322.393 103.875 322.393 102.771C322.393 101.664 321.564 100.773 320.423 100.773H320.407ZM320.437 100.349C321.844 100.349 322.955 101.409 322.955 102.755C322.955 104.133 321.844 105.193 320.423 105.193C319 105.193 317.873 104.133 317.873 102.755C317.873 101.409 319 100.349 320.423 100.349H320.437Z" fill="#205375"/>
<path d="M315.685 149.031H0.125488V147.929H315.685V149.031Z" fill="#205375"/>
<path d="M5.92664 184.192H14.5261C21.6594 184.192 23.5807 179.639 24.0361 175.996C24.4907 172.353 23.6813 167.801 16.5495 167.801H7.95008L5.92664 184.192ZM3.69956 202.555H0.260498L4.91363 164.613H16.499C25.9585 164.613 28.4875 170.077 27.7807 175.996C27.0719 181.915 23.1255 187.377 13.6662 187.377H5.52196L3.69956 202.555Z" fill="#205375"/>
<path d="M6.18751 183.963H14.526C20.0213 183.963 23.1437 181.273 23.8079 175.967C24.1276 173.404 23.6921 171.426 22.514 170.091C21.3073 168.724 19.3 168.031 16.55 168.031H8.15364L6.18751 183.963ZM14.526 184.422H5.66563L7.74688 167.571H16.55C19.4385 167.571 21.5609 168.315 22.8593 169.787C24.1297 171.224 24.6027 173.322 24.2645 176.024C23.786 179.856 21.7084 184.422 14.526 184.422ZM0.521355 202.326H3.49479L5.31719 187.148H13.6667C17.4385 187.148 26.3437 186.057 27.5527 175.969C27.9479 172.657 27.2683 169.905 25.5849 168.009C23.7213 165.908 20.6636 164.844 16.4995 164.844H5.11719L0.521355 202.326ZM3.90469 202.785H0L0.0322917 202.527L4.71093 164.383H16.4995C20.8 164.383 23.9729 165.5 25.9303 167.704C27.7016 169.7 28.4213 172.576 28.0093 176.022C27.5921 179.507 25.3599 187.608 13.6667 187.608H5.72708L3.90469 202.785Z" fill="#205375"/>
<path d="M45.2298 180.296C44.4708 180.043 43.5084 179.892 42.2438 179.892C38.8047 179.892 36.6787 180.448 34.7074 181.51L32.126 202.555H28.585L31.6714 177.261H33.6443L34.1495 179.387C36.7292 177.615 39.7651 176.755 42.5984 176.755C43.762 176.755 44.6724 176.856 45.6328 177.008L45.2298 180.296Z" fill="#205375"/>
<path d="M28.8458 202.326H31.9234L34.4937 181.365L34.5978 181.307C36.7672 180.139 38.9812 179.661 42.2442 179.661C43.336 179.661 44.253 179.771 45.036 179.995L45.3776 177.201C44.6114 177.085 43.739 176.985 42.5984 176.985C39.6666 176.985 36.713 177.905 34.2797 179.577L34.0041 179.765L33.463 177.492H31.8745L28.8458 202.326ZM32.3297 202.785H28.324L28.3568 202.527L31.4682 177.032H33.826L34.2973 179.01C36.751 177.405 39.6864 176.524 42.5984 176.524C43.8812 176.524 44.8322 176.648 45.6688 176.781L45.8885 176.816L45.4245 180.604L45.1562 180.513C44.3666 180.249 43.4136 180.121 42.2442 180.121C39.1182 180.121 36.9849 180.568 34.9218 181.657L32.3297 202.785Z" fill="#205375"/>
<path d="M59.8458 179.892C53.1693 179.892 52.2067 184.192 51.4999 189.908C50.7911 195.626 50.6906 199.926 57.3671 199.926C63.9431 199.926 64.9562 195.626 65.6645 189.908C66.3718 184.192 66.4218 179.892 59.8458 179.892ZM56.9625 203.062C48.313 203.062 46.9963 197.648 47.9583 189.908C48.9187 182.169 51.5505 176.755 60.2005 176.755C68.9026 176.755 70.1671 182.169 69.2046 189.908C68.2442 197.648 65.6645 203.062 56.9625 203.062Z" fill="#205375"/>
<path d="M59.8465 180.121C53.4376 180.121 52.4392 184.191 51.7288 189.938C51.2991 193.405 51.0652 196.416 52.5777 198.128C53.5095 199.183 55.0761 199.695 57.3679 199.695C63.7283 199.695 64.7247 195.627 65.4365 189.88C65.8485 186.543 66.0933 183.404 64.5679 181.68C63.6419 180.631 62.0965 180.121 59.8465 180.121ZM57.3679 200.156C54.9376 200.156 53.258 199.593 52.2324 198.432C50.5939 196.579 50.8277 193.463 51.272 189.88C52.0116 183.897 53.06 179.661 59.8465 179.661C62.2371 179.661 63.8933 180.221 64.9116 181.373C66.5647 183.244 66.3199 186.491 65.8933 189.938C65.1761 195.728 64.0933 200.156 57.3679 200.156ZM60.2007 176.985C51.0564 176.985 49.022 183.21 48.1871 189.938C47.5413 195.138 48.0485 198.355 49.8313 200.375C51.2919 202.028 53.6231 202.831 56.9632 202.831C66.1095 202.831 68.1419 196.607 68.9767 189.88C69.6261 184.664 69.1241 181.444 67.3485 179.434C65.8933 177.787 63.5553 176.985 60.2007 176.985ZM56.9632 203.291C53.4845 203.291 51.0381 202.436 49.4876 200.681C47.608 198.553 47.0668 195.221 47.7304 189.88C49.1908 178.11 54.8532 176.524 60.2007 176.524C63.6939 176.524 66.1455 177.377 67.6939 179.131C69.5632 181.245 70.0991 184.579 69.4335 189.938C68.5736 196.873 66.4657 203.291 56.9632 203.291Z" fill="#205375"/>
<path d="M77.8511 195.626C77.4479 198.913 79.2683 199.926 82.4052 199.926C85.6932 199.926 87.4131 199.368 89.4364 198.307L92.0178 177.261H95.5574L92.4724 202.555H90.4995L89.9922 200.431C87.3626 202.201 84.6807 203.062 82.0006 203.062C75.9803 203.062 73.7536 200.328 74.3615 195.472L76.5864 177.261H80.1282L77.8511 195.626Z" fill="#205375"/>
<path d="M76.79 177.492L74.59 195.501C74.3004 197.821 74.6874 199.604 75.7431 200.797C76.9322 202.146 79.0384 202.831 82.001 202.831C84.6644 202.831 87.3103 201.959 89.8644 200.24L90.14 200.055L90.6811 202.326H92.2696L95.2968 177.492H92.2207L89.6504 198.455L89.5426 198.51C87.5083 199.579 85.7692 200.156 82.4056 200.156C80.402 200.156 79.1119 199.753 78.3458 198.888C77.6802 198.133 77.4426 197.059 77.6228 195.596L79.8676 177.492H76.79ZM82.001 203.291C78.8999 203.291 76.6786 202.555 75.3978 201.104C74.2504 199.805 73.8254 197.9 74.1332 195.443L76.3832 177.032H80.389L78.0796 195.653C77.9176 196.976 78.1176 197.934 78.6911 198.581C79.3546 199.332 80.5692 199.695 82.4056 199.695C85.6144 199.695 87.2978 199.156 89.2228 198.159L91.8144 177.032H95.8182L95.7859 177.289L92.6759 202.785H90.3182L89.8447 200.805C87.2978 202.455 84.6608 203.291 82.001 203.291Z" fill="#205375"/>
<path d="M103.597 189.908C102.99 194.916 103.141 199.926 109.213 199.926C112.501 199.926 114.372 199.368 116.498 198.307L118.572 181.51C116.699 180.448 114.98 179.892 111.692 179.892C105.621 179.892 104.204 184.899 103.597 189.908ZM118.874 178.828L120.646 164.613H124.185L119.532 202.555H117.559L117.054 200.481C114.17 202.151 111.539 203.062 108.807 203.062C100.662 203.062 99.1964 197.193 100.056 189.908C100.966 182.624 103.899 176.755 112.044 176.755C114.372 176.755 116.9 177.413 118.874 178.828Z" fill="#205375"/>
<path d="M111.692 180.121C105.823 180.121 104.443 184.838 103.826 189.936C103.461 192.948 103.31 196.28 104.967 198.148C105.887 199.189 107.278 199.695 109.214 199.695C112.487 199.695 114.306 199.132 116.284 198.156L118.324 181.634C116.6 180.676 114.926 180.121 111.692 180.121ZM109.214 200.156C107.167 200.156 105.621 199.584 104.621 198.455C102.844 196.45 102.992 192.995 103.369 189.881C103.981 184.827 105.447 179.661 111.692 179.661C115.113 179.661 116.847 180.265 118.685 181.31L118.82 181.387L118.8 181.539L116.712 198.457L116.6 198.513C114.516 199.553 112.64 200.156 109.214 200.156ZM112.045 176.985C105.22 176.985 101.373 181.221 100.285 189.938C99.6984 194.904 100.311 198.328 102.159 200.405C103.588 202.013 105.826 202.831 108.807 202.831C111.352 202.831 113.935 202.021 116.939 200.281L117.205 200.129L117.741 202.326H119.329L123.925 164.844H120.849L119.054 179.243L118.739 179.016C116.941 177.726 114.502 176.985 112.045 176.985ZM108.807 203.291C105.688 203.291 103.335 202.422 101.814 200.712C99.8745 198.529 99.225 194.987 99.8276 189.881C100.95 180.893 104.947 176.524 112.045 176.524C114.455 176.524 116.853 177.214 118.693 178.424L120.443 164.383H124.446L124.414 164.643L119.736 202.785H117.378L116.903 200.833C113.938 202.508 111.359 203.291 108.807 203.291Z" fill="#205375"/>
<path d="M158.779 196.739H155.945L146.536 169.116L142.64 202.555H139.201L143.855 164.613H148.509L157.868 192.539L174.107 164.613H178.76L174.107 202.555H170.665L174.967 169.116L158.779 196.739Z" fill="#205375"/>
<path d="M170.929 202.326H173.904L178.5 164.844H174.24L157.811 193.093L157.651 192.612L148.344 164.844H144.059L139.463 202.326H142.436L146.425 168.076L156.111 196.508H158.648L175.339 168.026L170.929 202.326ZM174.311 202.785H170.404L170.437 202.527L174.595 170.205L158.909 196.968H155.78L155.728 196.812L146.648 170.155L142.845 202.785H138.941L138.973 202.527L143.652 164.383H148.676L148.728 164.54L157.927 191.983L173.975 164.383H179.021L178.989 164.643L174.311 202.785Z" fill="#205375"/>
<path d="M192.969 188.644C197.979 188.644 199.295 186.721 199.599 184.243C199.901 181.764 199.092 179.892 194.083 179.892C188.216 179.892 186.597 184.089 185.888 188.644H192.969ZM185.533 191.527C185.231 195.929 185.888 199.926 191.604 199.926C195.247 199.926 197.524 199.571 200.104 198.508L199.749 201.544C196.765 202.809 193.679 203.062 191.2 203.062C182.651 203.062 181.336 197.193 182.196 189.908C183.105 182.624 185.888 176.755 194.437 176.755C201.571 176.755 203.392 180.651 202.936 184.243C202.481 187.834 199.749 191.527 192.617 191.527H185.533Z" fill="#205375"/>
<path d="M186.159 188.413H192.971C198.156 188.413 199.115 186.292 199.369 184.214C199.527 182.938 199.341 182.051 198.785 181.422C198.012 180.547 196.473 180.121 194.084 180.121C188.359 180.121 186.839 184.269 186.159 188.413ZM192.971 188.875H185.62L185.661 188.608C186.349 184.185 187.889 179.661 194.084 179.661C196.612 179.661 198.264 180.139 199.131 181.116C199.78 181.851 200.001 182.852 199.827 184.272C199.564 186.413 198.548 188.875 192.971 188.875ZM194.437 176.985C187.248 176.985 183.543 180.98 182.424 189.938C181.829 194.979 182.407 198.291 184.243 200.356C185.723 202.021 187.999 202.831 191.2 202.831C194.456 202.831 197.184 202.357 199.537 201.384L199.831 198.867C197.405 199.815 195.197 200.156 191.605 200.156C189.437 200.156 187.872 199.605 186.817 198.476C185.173 196.714 185.144 193.828 185.304 191.51L185.32 191.297H192.617C200.915 191.297 202.439 186.344 202.708 184.214C202.879 182.865 202.793 180.929 201.412 179.361C200.023 177.784 197.676 176.985 194.437 176.985ZM191.2 203.291C187.907 203.291 185.449 202.405 183.899 200.662C181.969 198.491 181.356 195.065 181.968 189.881C183.463 177.909 189.801 176.524 194.437 176.524C197.813 176.524 200.276 177.377 201.757 179.057C203.252 180.753 203.348 182.829 203.165 184.272C202.879 186.521 201.281 191.757 192.617 191.757H185.751C185.613 193.941 185.679 196.58 187.153 198.162C188.117 199.193 189.572 199.695 191.605 199.695C195.307 199.695 197.508 199.328 200.016 198.296L200.377 198.146L199.964 201.704L199.839 201.756C197.403 202.789 194.576 203.291 191.2 203.291Z" fill="#205375"/>
<path d="M239.055 184.192C239.459 180.903 237.687 179.892 234.804 179.892C231.667 179.892 229.847 180.5 227.671 181.561C227.773 182.371 227.773 183.231 227.671 184.192L225.445 202.555H221.904L224.131 184.192C224.535 180.903 222.764 179.892 219.88 179.892C216.947 179.892 215.176 180.397 213.101 181.409L210.521 202.555H206.98L210.067 177.261H212.04L212.545 179.336C215.176 177.564 217.907 176.755 220.235 176.755C223.623 176.755 225.9 177.717 226.964 179.639C229.847 177.817 232.629 176.755 235.159 176.755C240.571 176.755 243.203 179.284 242.595 184.344L240.369 202.555H236.828L239.055 184.192Z" fill="#205375"/>
<path d="M237.087 202.326H240.167L242.365 184.315C242.643 182.012 242.235 180.227 241.152 179.007C239.961 177.665 237.945 176.985 235.159 176.985C232.795 176.985 230.079 177.944 227.087 179.832L226.881 179.964L226.763 179.749C225.748 177.915 223.552 176.985 220.235 176.985C217.793 176.985 215.108 177.888 212.673 179.527L212.4 179.712L211.859 177.492H210.269L207.241 202.326H210.319L212.887 181.257L213 181.203C215 180.227 216.769 179.661 219.88 179.661C221.683 179.661 222.909 180.059 223.635 180.879C224.305 181.636 224.543 182.731 224.359 184.221L222.163 202.326H225.243L227.443 184.165C227.543 183.226 227.543 182.381 227.443 181.589L227.42 181.426L227.569 181.355C229.82 180.257 231.64 179.661 234.804 179.661C236.607 179.661 237.833 180.059 238.559 180.879C239.229 181.636 239.467 182.731 239.283 184.22L237.087 202.326ZM240.572 202.785H236.569L236.599 202.528L238.827 184.164C238.992 182.812 238.792 181.838 238.213 181.183C237.581 180.469 236.467 180.121 234.804 180.121C231.799 180.121 230.041 180.673 227.919 181.696C228.004 182.475 227.996 183.303 227.899 184.217L225.649 202.785H221.645L221.676 202.528L223.903 184.165C224.068 182.812 223.868 181.838 223.289 181.183C222.657 180.469 221.543 180.121 219.88 180.121C216.916 180.121 215.209 180.649 213.315 181.563L210.725 202.785H206.72L206.752 202.527L209.864 177.032H212.221L212.691 178.964C215.128 177.388 217.796 176.524 220.235 176.524C223.607 176.524 225.895 177.464 227.043 179.317C230.031 177.464 232.761 176.524 235.159 176.524C238.083 176.524 240.215 177.256 241.496 178.701C242.669 180.024 243.116 181.932 242.823 184.371L240.572 202.785Z" fill="#205375"/>
<path d="M252.805 181.51L250.732 198.307C252.553 199.368 254.324 199.926 257.612 199.926C263.683 199.926 265.049 194.916 265.655 189.908C266.263 184.899 266.163 179.892 260.091 179.892C256.803 179.892 254.881 180.448 252.805 181.51ZM269.197 189.908C268.337 197.193 265.353 203.062 257.207 203.062C254.476 203.062 252.048 202.151 249.671 200.481L248.657 202.555H246.684L251.34 164.613H254.881L253.109 178.828C255.487 177.413 258.119 176.755 260.444 176.755C268.591 176.755 270.107 182.624 269.197 189.908Z" fill="#205375"/>
<path d="M250.979 198.183C252.62 199.12 254.336 199.695 257.612 199.695C263.436 199.695 264.811 194.979 265.427 189.881C265.793 186.851 265.951 183.504 264.312 181.655C263.399 180.624 262.017 180.121 260.091 180.121C256.767 180.121 254.903 180.708 253.02 181.66L250.979 198.183ZM257.612 200.156C254.145 200.156 252.365 199.524 250.616 198.507L250.485 198.429L250.503 198.277L252.592 181.361L252.701 181.305C254.684 180.291 256.609 179.661 260.091 179.661C262.128 179.661 263.664 180.229 264.656 181.348C266.416 183.334 266.264 186.804 265.884 189.936C265.272 194.989 263.812 200.156 257.612 200.156ZM249.583 200.138L249.804 200.292C252.269 202.024 254.623 202.831 257.207 202.831C264.092 202.831 267.94 198.595 268.969 189.881V189.88C269.584 184.949 268.985 181.536 267.135 179.439C265.697 177.81 263.447 176.985 260.445 176.985C258.003 176.985 255.439 177.709 253.227 179.027L252.824 179.268L254.62 164.844H251.543L246.945 202.326H248.513L249.583 200.138ZM257.207 203.291C254.637 203.291 252.197 202.484 249.76 200.822L248.801 202.785H246.424L246.456 202.527L251.136 164.383H255.143L253.396 178.399C255.583 177.188 258.067 176.524 260.445 176.524C263.584 176.524 265.951 177.403 267.48 179.134C269.421 181.334 270.059 184.869 269.425 189.936C268.364 198.921 264.368 203.291 257.207 203.291Z" fill="#205375"/>
<path d="M285.535 188.644C290.543 188.644 291.857 186.721 292.161 184.243C292.465 181.764 291.656 179.892 286.647 179.892C280.779 179.892 279.16 184.089 278.451 188.644H285.535ZM278.097 191.527C277.793 195.929 278.451 199.926 284.168 199.926C287.809 199.926 290.087 199.571 292.667 198.508L292.312 201.544C289.328 202.809 286.241 203.062 283.763 203.062C275.213 203.062 273.899 197.193 274.759 189.908C275.668 182.624 278.451 176.755 287 176.755C294.135 176.755 295.955 180.651 295.499 184.243C295.044 187.834 292.312 191.527 285.18 191.527H278.097Z" fill="#205375"/>
<path d="M278.721 188.413H285.535C290.719 188.413 291.677 186.292 291.933 184.214C292.089 182.938 291.904 182.051 291.348 181.422C290.575 180.547 289.037 180.121 286.647 180.121C280.921 180.121 279.401 184.269 278.721 188.413ZM285.535 188.875H278.184L278.225 188.608C278.912 184.185 280.452 179.661 286.647 179.661C289.175 179.661 290.827 180.139 291.693 181.116C292.343 181.851 292.564 182.852 292.389 184.272C292.127 186.413 291.111 188.875 285.535 188.875ZM287 176.985C279.811 176.985 276.105 180.98 274.987 189.938C274.392 194.979 274.969 198.291 276.805 200.356C278.285 202.021 280.561 202.831 283.763 202.831C287.019 202.831 289.747 202.357 292.1 201.384L292.393 198.867C289.968 199.815 287.76 200.156 284.168 200.156C282 200.156 280.436 199.605 279.38 198.476C277.736 196.714 277.707 193.828 277.867 191.51L277.883 191.297H285.18C293.477 191.297 295.001 186.344 295.271 184.214C295.441 182.865 295.356 180.929 293.975 179.361C292.585 177.784 290.239 176.985 287 176.985ZM283.763 203.291C280.469 203.291 278.012 202.405 276.463 200.662C274.532 198.491 273.919 195.065 274.531 189.881C276.025 177.909 282.364 176.524 287 176.524C290.377 176.524 292.839 177.377 294.32 179.057C295.815 180.753 295.912 182.829 295.728 184.272C295.441 186.521 293.845 191.757 285.18 191.757H278.313C278.176 193.941 278.241 196.58 279.716 198.162C280.68 199.193 282.135 199.695 284.168 199.695C287.869 199.695 290.071 199.328 292.579 198.296L292.94 198.146L292.527 201.704L292.403 201.756C289.965 202.789 287.139 203.291 283.763 203.291Z" fill="#205375"/>
<path d="M316.184 180.296C315.427 180.043 314.465 179.892 313.2 179.892C309.761 179.892 307.635 180.448 305.661 181.51L303.083 202.555H299.541L302.628 177.261H304.6L305.107 179.387C307.687 177.615 310.721 176.755 313.555 176.755C314.719 176.755 315.628 176.856 316.591 177.008L316.184 180.296Z" fill="#205375"/>
<path d="M299.801 202.326H302.88L305.448 181.365L305.552 181.307C307.724 180.139 309.94 179.661 313.2 179.661C314.292 179.661 315.209 179.771 315.991 179.995L316.336 177.201C315.568 177.085 314.693 176.985 313.555 176.985C310.625 176.985 307.671 177.905 305.236 179.577L304.96 179.765L304.419 177.492H302.831L299.801 202.326ZM303.287 202.785H299.28L299.313 202.527L302.424 177.032H304.783L305.253 179.01C307.709 177.405 310.643 176.524 313.555 176.524C314.836 176.524 315.789 176.648 316.627 176.781L316.847 176.816L316.379 180.604L316.111 180.513C315.323 180.249 314.369 180.121 313.2 180.121C310.075 180.121 307.941 180.568 305.876 181.657L303.287 202.785Z" fill="#205375"/>
</svg>
